<svg width="41" height="21" viewBox="0 0 41 21" fill="none" xmlns="http://www.w3.org/2000/svg">
<path d="M31.7593 1.19213C31.6399 1.06405 31.4906 1.00001 31.3264 1.00001C31.1622 1.00001 31.0129 1.06405 30.8934 1.19213C30.6546 1.44829 30.6546 1.86455 30.8934 2.1207L38.5071 10.2857L30.8934 18.4508C30.6546 18.7069 30.6546 19.1232 30.8934 19.3793C31.1323 19.6355 31.5204 19.6355 31.7593 19.3793L39.8209 10.75C40.0597 10.4939 40.0597 10.0776 39.8209 9.82144L31.7593 1.19213Z" fill="white" stroke="white"/>
<g opacity="0.7">
<path d="M16.9021 1.19213C16.7827 1.06405 16.6334 1.00001 16.4692 1.00001C16.305 1.00001 16.1557 1.06405 16.0363 1.19213C15.7974 1.44829 15.7974 1.86455 16.0363 2.1207L23.6499 10.2857L16.0363 18.4508C15.7974 18.7069 15.7974 19.1232 16.0363 19.3793C16.2751 19.6355 16.6633 19.6355 16.9021 19.3793L24.9637 10.75C25.2025 10.4939 25.2025 10.0776 24.9637 9.82144L16.9021 1.19213Z" fill="white" stroke="white"/>
</g>
<g opacity="0.4">
<path d="M2.04507 1.19213C1.92564 1.06405 1.77635 1.00001 1.61213 1.00001C1.44792 1.00001 1.29863 1.06405 1.1792 1.19213C0.940338 1.44829 0.940338 1.86455 1.1792 2.1207L8.79289 10.2857L1.1792 18.4508C0.940338 18.7069 0.940338 19.1232 1.1792 19.3793C1.41806 19.6355 1.80621 19.6355 2.04507 19.3793L10.1066 10.75C10.3455 10.4939 10.3455 10.0776 10.1066 9.82144L2.04507 1.19213Z" fill="white" stroke="white"/>
</g>
</svg>
