<svg width="80" height="22" viewBox="0 0 80 22" fill="none" xmlns="http://www.w3.org/2000/svg">
<path d="M0 11C0 4.92487 4.92487 0 11 0H80V22H11C4.92487 22 0 17.0751 0 11V11Z" fill="#43D3A6"/>
<path d="M16.9418 16.084C15.9712 16.084 15.0938 15.8693 14.3098 15.44C13.5352 15.0107 12.9238 14.418 12.4758 13.662C12.0372 12.8967 11.8178 12.0427 11.8178 11.1C11.8178 10.1573 12.0372 9.308 12.4758 8.552C12.9238 7.78667 13.5398 7.18933 14.3238 6.76C15.1078 6.33067 15.9852 6.116 16.9558 6.116C17.6838 6.116 18.3558 6.23733 18.9718 6.48C19.5878 6.72267 20.1105 7.07733 20.5398 7.544L19.8818 8.202C19.1165 7.42733 18.1505 7.04 16.9838 7.04C16.2092 7.04 15.5045 7.21733 14.8698 7.572C14.2352 7.92667 13.7358 8.412 13.3718 9.028C13.0172 9.644 12.8398 10.3347 12.8398 11.1C12.8398 11.8653 13.0172 12.556 13.3718 13.172C13.7358 13.788 14.2352 14.2733 14.8698 14.628C15.5045 14.9827 16.2092 15.16 16.9838 15.16C18.1598 15.16 19.1258 14.768 19.8818 13.984L20.5398 14.642C20.1105 15.1087 19.5832 15.468 18.9578 15.72C18.3418 15.9627 17.6698 16.084 16.9418 16.084ZM26.0952 16.07C25.3859 16.07 24.7466 15.9113 24.1772 15.594C23.6079 15.2673 23.1599 14.8193 22.8332 14.25C22.5066 13.6807 22.3432 13.0367 22.3432 12.318C22.3432 11.5993 22.5066 10.9553 22.8332 10.386C23.1599 9.81667 23.6079 9.37333 24.1772 9.056C24.7466 8.73867 25.3859 8.58 26.0952 8.58C26.8046 8.58 27.4439 8.73867 28.0132 9.056C28.5826 9.37333 29.0259 9.81667 29.3432 10.386C29.6699 10.9553 29.8332 11.5993 29.8332 12.318C29.8332 13.0367 29.6699 13.6807 29.3432 14.25C29.0259 14.8193 28.5826 15.2673 28.0132 15.594C27.4439 15.9113 26.8046 16.07 26.0952 16.07ZM26.0952 15.188C26.6179 15.188 27.0846 15.0713 27.4952 14.838C27.9152 14.5953 28.2419 14.2547 28.4752 13.816C28.7086 13.3773 28.8252 12.878 28.8252 12.318C28.8252 11.758 28.7086 11.2587 28.4752 10.82C28.2419 10.3813 27.9152 10.0453 27.4952 9.812C27.0846 9.56933 26.6179 9.448 26.0952 9.448C25.5726 9.448 25.1012 9.56933 24.6812 9.812C24.2706 10.0453 23.9439 10.3813 23.7012 10.82C23.4679 11.2587 23.3512 11.758 23.3512 12.318C23.3512 12.878 23.4679 13.3773 23.7012 13.816C23.9439 14.2547 24.2706 14.5953 24.6812 14.838C25.1012 15.0713 25.5726 15.188 26.0952 15.188ZM33.6896 10.078C33.9229 9.58333 34.2682 9.21 34.7256 8.958C35.1922 8.706 35.7662 8.58 36.4476 8.58V9.546L36.2096 9.532C35.4349 9.532 34.8282 9.77 34.3896 10.246C33.9509 10.722 33.7316 11.3893 33.7316 12.248V16H32.7376V8.636H33.6896V10.078ZM40.0743 10.078C40.3077 9.58333 40.653 9.21 41.1103 8.958C41.577 8.706 42.151 8.58 42.8323 8.58V9.546L42.5943 9.532C41.8197 9.532 41.213 9.77 40.7743 10.246C40.3357 10.722 40.1163 11.3893 40.1163 12.248V16H39.1223V8.636H40.0743V10.078ZM51.8507 12.626H45.6907C45.7467 13.3913 46.0407 14.012 46.5727 14.488C47.1047 14.9547 47.7767 15.188 48.5887 15.188C49.0461 15.188 49.4661 15.1087 49.8487 14.95C50.2314 14.782 50.5627 14.5393 50.8427 14.222L51.4027 14.866C51.0761 15.258 50.6654 15.5567 50.1707 15.762C49.6854 15.9673 49.1487 16.07 48.5607 16.07C47.8047 16.07 47.1327 15.9113 46.5447 15.594C45.9661 15.2673 45.5134 14.8193 45.1867 14.25C44.8601 13.6807 44.6967 13.0367 44.6967 12.318C44.6967 11.5993 44.8507 10.9553 45.1587 10.386C45.4761 9.81667 45.9054 9.37333 46.4467 9.056C46.9974 8.73867 47.6134 8.58 48.2947 8.58C48.9761 8.58 49.5874 8.73867 50.1287 9.056C50.6701 9.37333 51.0947 9.81667 51.4027 10.386C51.7107 10.946 51.8647 11.59 51.8647 12.318L51.8507 12.626ZM48.2947 9.434C47.5854 9.434 46.9881 9.66267 46.5027 10.12C46.0267 10.568 45.7561 11.156 45.6907 11.884H50.9127C50.8474 11.156 50.5721 10.568 50.0867 10.12C49.6107 9.66267 49.0134 9.434 48.2947 9.434ZM57.815 16.07C57.087 16.07 56.4336 15.9113 55.855 15.594C55.2856 15.2767 54.8376 14.8333 54.511 14.264C54.1843 13.6853 54.021 13.0367 54.021 12.318C54.021 11.5993 54.1843 10.9553 54.511 10.386C54.8376 9.81667 55.2856 9.37333 55.855 9.056C56.4336 8.73867 57.087 8.58 57.815 8.58C58.4496 8.58 59.0143 8.706 59.509 8.958C60.013 9.20067 60.4096 9.56 60.699 10.036L59.957 10.54C59.7143 10.176 59.4063 9.90533 59.033 9.728C58.6596 9.54133 58.2536 9.448 57.815 9.448C57.283 9.448 56.8023 9.56933 56.373 9.812C55.953 10.0453 55.6216 10.3813 55.379 10.82C55.1456 11.2587 55.029 11.758 55.029 12.318C55.029 12.8873 55.1456 13.3913 55.379 13.83C55.6216 14.2593 55.953 14.5953 56.373 14.838C56.8023 15.0713 57.283 15.188 57.815 15.188C58.2536 15.188 58.6596 15.0993 59.033 14.922C59.4063 14.7447 59.7143 14.474 59.957 14.11L60.699 14.614C60.4096 15.09 60.013 15.454 59.509 15.706C59.005 15.9487 58.4403 16.07 57.815 16.07ZM67.4867 15.552C67.3 15.72 67.0667 15.8507 66.7867 15.944C66.516 16.028 66.2313 16.07 65.9327 16.07C65.242 16.07 64.71 15.8833 64.3367 15.51C63.9633 15.1367 63.7767 14.6093 63.7767 13.928V9.476H62.4607V8.636H63.7767V7.026H64.7707V8.636H67.0107V9.476H64.7707V13.872C64.7707 14.3107 64.878 14.6467 65.0927 14.88C65.3167 15.104 65.634 15.216 66.0447 15.216C66.25 15.216 66.446 15.1833 66.6327 15.118C66.8287 15.0527 66.9967 14.9593 67.1367 14.838L67.4867 15.552Z" fill="white"/>
</svg>
