<svg class="half-sphere" width="33" height="50" viewBox="0 0 33 50" fill="none" xmlns="http://www.w3.org/2000/svg">
<path d="M25 -1.09278e-06C38.8071 -4.89256e-07 50 11.1929 50 25C50 38.8071 38.8071 50 25 50C11.1929 50 -1.69631e-06 38.8071 -1.09278e-06 25C-4.89256e-07 11.1929 11.1929 -1.69631e-06 25 -1.09278e-06Z" fill="#43D3A6" fill-opacity="0.2"/>
<path class="svg-arrow" d="M12.6473 16.8391C12.5464 16.7241 12.4203 16.6667 12.2816 16.6667C12.1429 16.6667 12.0168 16.7241 11.916 16.8391C11.7142 17.069 11.7142 17.4425 11.916 17.6724L18.3468 25L11.916 32.3276C11.7142 32.5575 11.7142 32.931 11.916 33.1609C12.1177 33.3908 12.4456 33.3908 12.6473 33.1609L19.4565 25.4167C19.6582 25.1868 19.6582 24.8132 19.4565 24.5833L12.6473 16.8391Z" fill="#ffffff" stroke="#43D3A6"/>
</svg>
