<svg width="85" height="22" viewBox="0 0 85 22" fill="none" xmlns="http://www.w3.org/2000/svg">
<path d="M0 11C0 4.92487 4.92487 0 11 0H85V22H11C4.92487 22 0 17.0751 0 11Z" fill="#F05858"/>
<path d="M8.93194 6.2H9.96794V16H8.93194V6.2ZM17.5735 8.58C18.4975 8.58 19.2302 8.85067 19.7715 9.392C20.3222 9.924 20.5975 10.7033 20.5975 11.73V16H19.6035V11.828C19.6035 11.0627 19.4122 10.4793 19.0295 10.078C18.6469 9.67667 18.1009 9.476 17.3915 9.476C16.5982 9.476 15.9682 9.714 15.5015 10.19C15.0442 10.6567 14.8155 11.3053 14.8155 12.136V16H13.8215V8.636H14.7735V9.994C15.0442 9.546 15.4175 9.20067 15.8935 8.958C16.3789 8.706 16.9389 8.58 17.5735 8.58ZM27.2505 16.07C26.5225 16.07 25.8692 15.9113 25.2905 15.594C24.7212 15.2767 24.2732 14.8333 23.9465 14.264C23.6198 13.6853 23.4565 13.0367 23.4565 12.318C23.4565 11.5993 23.6198 10.9553 23.9465 10.386C24.2732 9.81667 24.7212 9.37333 25.2905 9.056C25.8692 8.73867 26.5225 8.58 27.2505 8.58C27.8852 8.58 28.4498 8.706 28.9445 8.958C29.4485 9.20067 29.8452 9.56 30.1345 10.036L29.3925 10.54C29.1498 10.176 28.8418 9.90533 28.4685 9.728C28.0952 9.54133 27.6892 9.448 27.2505 9.448C26.7185 9.448 26.2378 9.56933 25.8085 9.812C25.3885 10.0453 25.0572 10.3813 24.8145 10.82C24.5812 11.2587 24.4645 11.758 24.4645 12.318C24.4645 12.8873 24.5812 13.3913 24.8145 13.83C25.0572 14.2593 25.3885 14.5953 25.8085 14.838C26.2378 15.0713 26.7185 15.188 27.2505 15.188C27.6892 15.188 28.0952 15.0993 28.4685 14.922C28.8418 14.7447 29.1498 14.474 29.3925 14.11L30.1345 14.614C29.8452 15.09 29.4485 15.454 28.9445 15.706C28.4405 15.9487 27.8758 16.07 27.2505 16.07ZM35.8491 16.07C35.1398 16.07 34.5005 15.9113 33.9311 15.594C33.3618 15.2673 32.9138 14.8193 32.5871 14.25C32.2605 13.6807 32.0971 13.0367 32.0971 12.318C32.0971 11.5993 32.2605 10.9553 32.5871 10.386C32.9138 9.81667 33.3618 9.37333 33.9311 9.056C34.5005 8.73867 35.1398 8.58 35.8491 8.58C36.5585 8.58 37.1978 8.73867 37.7671 9.056C38.3365 9.37333 38.7798 9.81667 39.0971 10.386C39.4238 10.9553 39.5871 11.5993 39.5871 12.318C39.5871 13.0367 39.4238 13.6807 39.0971 14.25C38.7798 14.8193 38.3365 15.2673 37.7671 15.594C37.1978 15.9113 36.5585 16.07 35.8491 16.07ZM35.8491 15.188C36.3718 15.188 36.8385 15.0713 37.2491 14.838C37.6691 14.5953 37.9958 14.2547 38.2291 13.816C38.4625 13.3773 38.5791 12.878 38.5791 12.318C38.5791 11.758 38.4625 11.2587 38.2291 10.82C37.9958 10.3813 37.6691 10.0453 37.2491 9.812C36.8385 9.56933 36.3718 9.448 35.8491 9.448C35.3265 9.448 34.8551 9.56933 34.4351 9.812C34.0245 10.0453 33.6978 10.3813 33.4551 10.82C33.2218 11.2587 33.1051 11.758 33.1051 12.318C33.1051 12.878 33.2218 13.3773 33.4551 13.816C33.6978 14.2547 34.0245 14.5953 34.4351 14.838C34.8551 15.0713 35.3265 15.188 35.8491 15.188ZM43.4435 10.078C43.6768 9.58333 44.0221 9.21 44.4795 8.958C44.9461 8.706 45.5201 8.58 46.2015 8.58V9.546L45.9635 9.532C45.1888 9.532 44.5821 9.77 44.1435 10.246C43.7048 10.722 43.4855 11.3893 43.4855 12.248V16H42.4915V8.636H43.4435V10.078ZM49.8282 10.078C50.0616 9.58333 50.4069 9.21 50.8642 8.958C51.3309 8.706 51.9049 8.58 52.5862 8.58V9.546L52.3482 9.532C51.5736 9.532 50.9669 9.77 50.5282 10.246C50.0896 10.722 49.8702 11.3893 49.8702 12.248V16H48.8762V8.636H49.8282V10.078ZM61.6046 12.626H55.4446C55.5006 13.3913 55.7946 14.012 56.3266 14.488C56.8586 14.9547 57.5306 15.188 58.3426 15.188C58.8 15.188 59.22 15.1087 59.6026 14.95C59.9853 14.782 60.3166 14.5393 60.5966 14.222L61.1566 14.866C60.83 15.258 60.4193 15.5567 59.9246 15.762C59.4393 15.9673 58.9026 16.07 58.3146 16.07C57.5586 16.07 56.8866 15.9113 56.2986 15.594C55.72 15.2673 55.2673 14.8193 54.9406 14.25C54.614 13.6807 54.4506 13.0367 54.4506 12.318C54.4506 11.5993 54.6046 10.9553 54.9126 10.386C55.23 9.81667 55.6593 9.37333 56.2006 9.056C56.7513 8.73867 57.3673 8.58 58.0486 8.58C58.73 8.58 59.3413 8.73867 59.8826 9.056C60.424 9.37333 60.8486 9.81667 61.1566 10.386C61.4646 10.946 61.6186 11.59 61.6186 12.318L61.6046 12.626ZM58.0486 9.434C57.3393 9.434 56.742 9.66267 56.2566 10.12C55.7806 10.568 55.51 11.156 55.4446 11.884H60.6666C60.6013 11.156 60.326 10.568 59.8406 10.12C59.3646 9.66267 58.7673 9.434 58.0486 9.434ZM67.5689 16.07C66.8409 16.07 66.1875 15.9113 65.6089 15.594C65.0395 15.2767 64.5915 14.8333 64.2649 14.264C63.9382 13.6853 63.7749 13.0367 63.7749 12.318C63.7749 11.5993 63.9382 10.9553 64.2649 10.386C64.5915 9.81667 65.0395 9.37333 65.6089 9.056C66.1875 8.73867 66.8409 8.58 67.5689 8.58C68.2035 8.58 68.7682 8.706 69.2629 8.958C69.7669 9.20067 70.1635 9.56 70.4529 10.036L69.7109 10.54C69.4682 10.176 69.1602 9.90533 68.7869 9.728C68.4135 9.54133 68.0075 9.448 67.5689 9.448C67.0369 9.448 66.5562 9.56933 66.1269 9.812C65.7069 10.0453 65.3755 10.3813 65.1329 10.82C64.8995 11.2587 64.7829 11.758 64.7829 12.318C64.7829 12.8873 64.8995 13.3913 65.1329 13.83C65.3755 14.2593 65.7069 14.5953 66.1269 14.838C66.5562 15.0713 67.0369 15.188 67.5689 15.188C68.0075 15.188 68.4135 15.0993 68.7869 14.922C69.1602 14.7447 69.4682 14.474 69.7109 14.11L70.4529 14.614C70.1635 15.09 69.7669 15.454 69.2629 15.706C68.7589 15.9487 68.1942 16.07 67.5689 16.07ZM77.2406 15.552C77.0539 15.72 76.8206 15.8507 76.5406 15.944C76.2699 16.028 75.9852 16.07 75.6866 16.07C74.9959 16.07 74.4639 15.8833 74.0906 15.51C73.7172 15.1367 73.5306 14.6093 73.5306 13.928V9.476H72.2146V8.636H73.5306V7.026H74.5246V8.636H76.7646V9.476H74.5246V13.872C74.5246 14.3107 74.6319 14.6467 74.8466 14.88C75.0706 15.104 75.3879 15.216 75.7986 15.216C76.0039 15.216 76.1999 15.1833 76.3866 15.118C76.5826 15.0527 76.7506 14.9593 76.8906 14.838L77.2406 15.552Z" fill="white"/>
</svg>
