<svg width="198" height="59" viewBox="0 0 198 59" fill="none" xmlns="http://www.w3.org/2000/svg">
<path d="M54.67 12.62C57.17 12.62 59.09 13.22 60.43 14.42C61.77 15.6 62.44 17.39 62.44 19.79V29H58.06V26.99C57.18 28.49 55.54 29.24 53.14 29.24C51.9 29.24 50.82 29.03 49.9 28.61C49 28.19 48.31 27.61 47.83 26.87C47.35 26.13 47.11 25.29 47.11 24.35C47.11 22.85 47.67 21.67 48.79 20.81C49.93 19.95 51.68 19.52 54.04 19.52H57.76C57.76 18.5 57.45 17.72 56.83 17.18C56.21 16.62 55.28 16.34 54.04 16.34C53.18 16.34 52.33 16.48 51.49 16.76C50.67 17.02 49.97 17.38 49.39 17.84L47.71 14.57C48.59 13.95 49.64 13.47 50.86 13.13C52.1 12.79 53.37 12.62 54.67 12.62ZM54.31 26.09C55.11 26.09 55.82 25.91 56.44 25.55C57.06 25.17 57.5 24.62 57.76 23.9V22.25H54.55C52.63 22.25 51.67 22.88 51.67 24.14C51.67 24.74 51.9 25.22 52.36 25.58C52.84 25.92 53.49 26.09 54.31 26.09ZM83.1156 6.74V29H78.6456V27.14C77.4856 28.54 75.8056 29.24 73.6056 29.24C72.0856 29.24 70.7056 28.9 69.4656 28.22C68.2456 27.54 67.2856 26.57 66.5856 25.31C65.8856 24.05 65.5356 22.59 65.5356 20.93C65.5356 19.27 65.8856 17.81 66.5856 16.55C67.2856 15.29 68.2456 14.32 69.4656 13.64C70.7056 12.96 72.0856 12.62 73.6056 12.62C75.6656 12.62 77.2756 13.27 78.4356 14.57V6.74H83.1156ZM74.4156 25.4C75.5956 25.4 76.5756 25 77.3556 24.2C78.1356 23.38 78.5256 22.29 78.5256 20.93C78.5256 19.57 78.1356 18.49 77.3556 17.69C76.5756 16.87 75.5956 16.46 74.4156 16.46C73.2156 16.46 72.2256 16.87 71.4456 17.69C70.6656 18.49 70.2756 19.57 70.2756 20.93C70.2756 22.29 70.6656 23.38 71.4456 24.2C72.2256 25 73.2156 25.4 74.4156 25.4ZM103.467 12.86L96.6571 29H91.8271L85.0471 12.86H89.8771L94.3471 23.84L98.9671 12.86H103.467ZM111.359 12.62C113.859 12.62 115.779 13.22 117.119 14.42C118.459 15.6 119.129 17.39 119.129 19.79V29H114.749V26.99C113.869 28.49 112.229 29.24 109.829 29.24C108.589 29.24 107.509 29.03 106.589 28.61C105.689 28.19 104.999 27.61 104.519 26.87C104.039 26.13 103.799 25.29 103.799 24.35C103.799 22.85 104.359 21.67 105.479 20.81C106.619 19.95 108.369 19.52 110.729 19.52H114.449C114.449 18.5 114.139 17.72 113.519 17.18C112.899 16.62 111.969 16.34 110.729 16.34C109.869 16.34 109.019 16.48 108.179 16.76C107.359 17.02 106.659 17.38 106.079 17.84L104.399 14.57C105.279 13.95 106.329 13.47 107.549 13.13C108.789 12.79 110.059 12.62 111.359 12.62ZM110.999 26.09C111.799 26.09 112.509 25.91 113.129 25.55C113.749 25.17 114.189 24.62 114.449 23.9V22.25H111.239C109.319 22.25 108.359 22.88 108.359 24.14C108.359 24.74 108.589 25.22 109.049 25.58C109.529 25.92 110.179 26.09 110.999 26.09ZM133.175 12.62C135.175 12.62 136.785 13.22 138.005 14.42C139.245 15.62 139.865 17.4 139.865 19.76V29H135.185V20.48C135.185 19.2 134.905 18.25 134.345 17.63C133.785 16.99 132.975 16.67 131.915 16.67C130.735 16.67 129.795 17.04 129.095 17.78C128.395 18.5 128.045 19.58 128.045 21.02V29H123.365V12.86H127.835V14.75C128.455 14.07 129.225 13.55 130.145 13.19C131.065 12.81 132.075 12.62 133.175 12.62ZM157.397 25.4V29H142.997V26.18L151.217 16.46H143.207V12.86H157.127V15.68L148.907 25.4H157.397Z" fill="black"/>
<path d="M176.206 20.99C176.206 21.05 176.176 21.47 176.116 22.25H163.906C164.126 23.25 164.646 24.04 165.466 24.62C166.286 25.2 167.306 25.49 168.526 25.49C169.366 25.49 170.106 25.37 170.746 25.13C171.406 24.87 172.016 24.47 172.576 23.93L175.066 26.63C173.546 28.37 171.326 29.24 168.406 29.24C166.586 29.24 164.976 28.89 163.576 28.19C162.176 27.47 161.096 26.48 160.336 25.22C159.576 23.96 159.196 22.53 159.196 20.93C159.196 19.35 159.566 17.93 160.306 16.67C161.066 15.39 162.096 14.4 163.396 13.7C164.716 12.98 166.186 12.62 167.806 12.62C169.386 12.62 170.816 12.96 172.096 13.64C173.376 14.32 174.376 15.3 175.096 16.58C175.836 17.84 176.206 19.31 176.206 20.99ZM167.836 16.16C166.776 16.16 165.886 16.46 165.166 17.06C164.446 17.66 164.006 18.48 163.846 19.52H171.796C171.636 18.5 171.196 17.69 170.476 17.09C169.756 16.47 168.876 16.16 167.836 16.16ZM195.762 6.74V29H191.292V27.14C190.132 28.54 188.452 29.24 186.252 29.24C184.732 29.24 183.352 28.9 182.112 28.22C180.892 27.54 179.932 26.57 179.232 25.31C178.532 24.05 178.182 22.59 178.182 20.93C178.182 19.27 178.532 17.81 179.232 16.55C179.932 15.29 180.892 14.32 182.112 13.64C183.352 12.96 184.732 12.62 186.252 12.62C188.312 12.62 189.922 13.27 191.082 14.57V6.74H195.762ZM187.062 25.4C188.242 25.4 189.222 25 190.002 24.2C190.782 23.38 191.172 22.29 191.172 20.93C191.172 19.57 190.782 18.49 190.002 17.69C189.222 16.87 188.242 16.46 187.062 16.46C185.862 16.46 184.872 16.87 184.092 17.69C183.312 18.49 182.922 19.57 182.922 20.93C182.922 22.29 183.312 23.38 184.092 24.2C184.872 25 185.862 25.4 187.062 25.4Z" fill="#FA6439"/>
<path d="M51.67 42.9C52.45 42.9 53.145 43.07 53.755 43.41C54.375 43.75 54.86 44.23 55.21 44.85C55.56 45.47 55.735 46.185 55.735 46.995C55.735 47.805 55.56 48.525 55.21 49.155C54.86 49.775 54.375 50.255 53.755 50.595C53.145 50.935 52.45 51.105 51.67 51.105C50.59 51.105 49.735 50.745 49.105 50.025V53.91H47.23V42.99H49.015V44.04C49.325 43.66 49.705 43.375 50.155 43.185C50.615 42.995 51.12 42.9 51.67 42.9ZM51.46 49.5C52.15 49.5 52.715 49.27 53.155 48.81C53.605 48.35 53.83 47.745 53.83 46.995C53.83 46.245 53.605 45.64 53.155 45.18C52.715 44.72 52.15 44.49 51.46 44.49C51.01 44.49 50.605 44.595 50.245 44.805C49.885 45.005 49.6 45.295 49.39 45.675C49.18 46.055 49.075 46.495 49.075 46.995C49.075 47.495 49.18 47.935 49.39 48.315C49.6 48.695 49.885 48.99 50.245 49.2C50.605 49.4 51.01 49.5 51.46 49.5ZM59.2982 44.16C59.8382 43.32 60.7882 42.9 62.1482 42.9V44.685C61.9882 44.655 61.8432 44.64 61.7132 44.64C60.9832 44.64 60.4132 44.855 60.0032 45.285C59.5932 45.705 59.3882 46.315 59.3882 47.115V51H57.5132V42.99H59.2982V44.16ZM66.7548 42.9C67.9348 42.9 68.8348 43.185 69.4548 43.755C70.0848 44.315 70.3998 45.165 70.3998 46.305V51H68.6298V50.025C68.3998 50.375 68.0698 50.645 67.6398 50.835C67.2198 51.015 66.7098 51.105 66.1098 51.105C65.5098 51.105 64.9848 51.005 64.5348 50.805C64.0848 50.595 63.7348 50.31 63.4848 49.95C63.2448 49.58 63.1248 49.165 63.1248 48.705C63.1248 47.985 63.3898 47.41 63.9198 46.98C64.4598 46.54 65.3048 46.32 66.4548 46.32H68.5248V46.2C68.5248 45.64 68.3548 45.21 68.0148 44.91C67.6848 44.61 67.1898 44.46 66.5298 44.46C66.0798 44.46 65.6348 44.53 65.1948 44.67C64.7648 44.81 64.3998 45.005 64.0998 45.255L63.3648 43.89C63.7848 43.57 64.2898 43.325 64.8798 43.155C65.4698 42.985 66.0948 42.9 66.7548 42.9ZM66.4998 49.74C66.9698 49.74 67.3848 49.635 67.7448 49.425C68.1148 49.205 68.3748 48.895 68.5248 48.495V47.565H66.5898C65.5098 47.565 64.9698 47.92 64.9698 48.63C64.9698 48.97 65.1048 49.24 65.3748 49.44C65.6448 49.64 66.0198 49.74 66.4998 49.74ZM76.5544 51.105C75.7244 51.105 74.9794 50.93 74.3194 50.58C73.6594 50.23 73.1444 49.745 72.7744 49.125C72.4044 48.495 72.2194 47.785 72.2194 46.995C72.2194 46.205 72.4044 45.5 72.7744 44.88C73.1444 44.26 73.6544 43.775 74.3044 43.425C74.9644 43.075 75.7144 42.9 76.5544 42.9C77.3444 42.9 78.0344 43.06 78.6244 43.38C79.2244 43.7 79.6744 44.16 79.9744 44.76L78.5344 45.6C78.3044 45.23 78.0144 44.955 77.6644 44.775C77.3244 44.585 76.9494 44.49 76.5394 44.49C75.8394 44.49 75.2594 44.72 74.7994 45.18C74.3394 45.63 74.1094 46.235 74.1094 46.995C74.1094 47.755 74.3344 48.365 74.7844 48.825C75.2444 49.275 75.8294 49.5 76.5394 49.5C76.9494 49.5 77.3244 49.41 77.6644 49.23C78.0144 49.04 78.3044 48.76 78.5344 48.39L79.9744 49.23C79.6644 49.83 79.2094 50.295 78.6094 50.625C78.0194 50.945 77.3344 51.105 76.5544 51.105ZM86.5128 50.565C86.2928 50.745 86.0228 50.88 85.7028 50.97C85.3928 51.06 85.0628 51.105 84.7128 51.105C83.8328 51.105 83.1528 50.875 82.6728 50.415C82.1928 49.955 81.9528 49.285 81.9528 48.405V44.55H80.6328V43.05H81.9528V41.22H83.8278V43.05H85.9728V44.55H83.8278V48.36C83.8278 48.75 83.9228 49.05 84.1128 49.26C84.3028 49.46 84.5778 49.56 84.9378 49.56C85.3578 49.56 85.7078 49.45 85.9878 49.23L86.5128 50.565ZM88.0552 42.99H89.9302V51H88.0552V42.99ZM89.0002 41.67C88.6602 41.67 88.3752 41.565 88.1452 41.355C87.9152 41.135 87.8002 40.865 87.8002 40.545C87.8002 40.225 87.9152 39.96 88.1452 39.75C88.3752 39.53 88.6602 39.42 89.0002 39.42C89.3402 39.42 89.6252 39.525 89.8552 39.735C90.0852 39.935 90.2002 40.19 90.2002 40.5C90.2002 40.83 90.0852 41.11 89.8552 41.34C89.6352 41.56 89.3502 41.67 89.0002 41.67ZM96.0661 51.105C95.2361 51.105 94.4911 50.93 93.8311 50.58C93.1711 50.23 92.6561 49.745 92.2861 49.125C91.9161 48.495 91.7311 47.785 91.7311 46.995C91.7311 46.205 91.9161 45.5 92.2861 44.88C92.6561 44.26 93.1661 43.775 93.8161 43.425C94.4761 43.075 95.2261 42.9 96.0661 42.9C96.8561 42.9 97.5461 43.06 98.1361 43.38C98.7361 43.7 99.1861 44.16 99.4861 44.76L98.0461 45.6C97.8161 45.23 97.5261 44.955 97.1761 44.775C96.8361 44.585 96.4611 44.49 96.0511 44.49C95.3511 44.49 94.7711 44.72 94.3111 45.18C93.8511 45.63 93.6211 46.235 93.6211 46.995C93.6211 47.755 93.8461 48.365 94.2961 48.825C94.7561 49.275 95.3411 49.5 96.0511 49.5C96.4611 49.5 96.8361 49.41 97.1761 49.23C97.5261 49.04 97.8161 48.76 98.0461 48.39L99.4861 49.23C99.1761 49.83 98.7211 50.295 98.1211 50.625C97.5311 50.945 96.8461 51.105 96.0661 51.105ZM108.52 47.04C108.52 47.17 108.51 47.355 108.49 47.595H102.205C102.315 48.185 102.6 48.655 103.06 49.005C103.53 49.345 104.11 49.515 104.8 49.515C105.68 49.515 106.405 49.225 106.975 48.645L107.98 49.8C107.62 50.23 107.165 50.555 106.615 50.775C106.065 50.995 105.445 51.105 104.755 51.105C103.875 51.105 103.1 50.93 102.43 50.58C101.76 50.23 101.24 49.745 100.87 49.125C100.51 48.495 100.33 47.785 100.33 46.995C100.33 46.215 100.505 45.515 100.855 44.895C101.215 44.265 101.71 43.775 102.34 43.425C102.97 43.075 103.68 42.9 104.47 42.9C105.25 42.9 105.945 43.075 106.555 43.425C107.175 43.765 107.655 44.25 107.995 44.88C108.345 45.5 108.52 46.22 108.52 47.04ZM104.47 44.4C103.87 44.4 103.36 44.58 102.94 44.94C102.53 45.29 102.28 45.76 102.19 46.35H106.735C106.655 45.77 106.41 45.3 106 44.94C105.59 44.58 105.08 44.4 104.47 44.4ZM110.921 51.105C110.581 51.105 110.291 50.99 110.051 50.76C109.811 50.52 109.691 50.22 109.691 49.86C109.691 49.49 109.806 49.19 110.036 48.96C110.276 48.73 110.571 48.615 110.921 48.615C111.271 48.615 111.561 48.73 111.791 48.96C112.031 49.19 112.151 49.49 112.151 49.86C112.151 50.22 112.031 50.52 111.791 50.76C111.551 50.99 111.261 51.105 110.921 51.105ZM121.188 42.9C122.368 42.9 123.268 43.185 123.888 43.755C124.518 44.315 124.833 45.165 124.833 46.305V51H123.063V50.025C122.833 50.375 122.503 50.645 122.073 50.835C121.653 51.015 121.143 51.105 120.543 51.105C119.943 51.105 119.418 51.005 118.968 50.805C118.518 50.595 118.168 50.31 117.918 49.95C117.678 49.58 117.558 49.165 117.558 48.705C117.558 47.985 117.823 47.41 118.353 46.98C118.893 46.54 119.738 46.32 120.888 46.32H122.958V46.2C122.958 45.64 122.788 45.21 122.448 44.91C122.118 44.61 121.623 44.46 120.963 44.46C120.513 44.46 120.068 44.53 119.628 44.67C119.198 44.81 118.833 45.005 118.533 45.255L117.798 43.89C118.218 43.57 118.723 43.325 119.313 43.155C119.903 42.985 120.528 42.9 121.188 42.9ZM120.933 49.74C121.403 49.74 121.818 49.635 122.178 49.425C122.548 49.205 122.808 48.895 122.958 48.495V47.565H121.023C119.943 47.565 119.403 47.92 119.403 48.63C119.403 48.97 119.538 49.24 119.808 49.44C120.078 49.64 120.453 49.74 120.933 49.74ZM130.988 51.105C130.158 51.105 129.413 50.93 128.753 50.58C128.093 50.23 127.578 49.745 127.208 49.125C126.838 48.495 126.653 47.785 126.653 46.995C126.653 46.205 126.838 45.5 127.208 44.88C127.578 44.26 128.088 43.775 128.738 43.425C129.398 43.075 130.148 42.9 130.988 42.9C131.778 42.9 132.468 43.06 133.058 43.38C133.658 43.7 134.108 44.16 134.408 44.76L132.968 45.6C132.738 45.23 132.448 44.955 132.098 44.775C131.758 44.585 131.383 44.49 130.973 44.49C130.273 44.49 129.693 44.72 129.233 45.18C128.773 45.63 128.543 46.235 128.543 46.995C128.543 47.755 128.768 48.365 129.218 48.825C129.678 49.275 130.263 49.5 130.973 49.5C131.383 49.5 131.758 49.41 132.098 49.23C132.448 49.04 132.738 48.76 132.968 48.39L134.408 49.23C134.098 49.83 133.643 50.295 133.043 50.625C132.453 50.945 131.768 51.105 130.988 51.105ZM140.501 42.9C141.511 42.9 142.321 43.195 142.931 43.785C143.541 44.375 143.846 45.25 143.846 46.41V51H141.971V46.65C141.971 45.95 141.806 45.425 141.476 45.075C141.146 44.715 140.676 44.535 140.066 44.535C139.376 44.535 138.831 44.745 138.431 45.165C138.031 45.575 137.831 46.17 137.831 46.95V51H135.956V39.87H137.831V43.92C138.141 43.59 138.521 43.34 138.971 43.17C139.431 42.99 139.941 42.9 140.501 42.9ZM146.224 42.99H148.099V51H146.224V42.99ZM147.169 41.67C146.829 41.67 146.544 41.565 146.314 41.355C146.084 41.135 145.969 40.865 145.969 40.545C145.969 40.225 146.084 39.96 146.314 39.75C146.544 39.53 146.829 39.42 147.169 39.42C147.509 39.42 147.794 39.525 148.024 39.735C148.254 39.935 148.369 40.19 148.369 40.5C148.369 40.83 148.254 41.11 148.024 41.34C147.804 41.56 147.519 41.67 147.169 41.67ZM158.06 42.99L154.625 51H152.69L149.255 42.99H151.205L153.695 48.93L156.26 42.99H158.06ZM166.542 47.04C166.542 47.17 166.532 47.355 166.512 47.595H160.227C160.337 48.185 160.622 48.655 161.082 49.005C161.552 49.345 162.132 49.515 162.822 49.515C163.702 49.515 164.427 49.225 164.997 48.645L166.002 49.8C165.642 50.23 165.187 50.555 164.637 50.775C164.087 50.995 163.467 51.105 162.777 51.105C161.897 51.105 161.122 50.93 160.452 50.58C159.782 50.23 159.262 49.745 158.892 49.125C158.532 48.495 158.352 47.785 158.352 46.995C158.352 46.215 158.527 45.515 158.877 44.895C159.237 44.265 159.732 43.775 160.362 43.425C160.992 43.075 161.702 42.9 162.492 42.9C163.272 42.9 163.967 43.075 164.577 43.425C165.197 43.765 165.677 44.25 166.017 44.88C166.367 45.5 166.542 46.22 166.542 47.04ZM162.492 44.4C161.892 44.4 161.382 44.58 160.962 44.94C160.552 45.29 160.302 45.76 160.212 46.35H164.757C164.677 45.77 164.432 45.3 164.022 44.94C163.612 44.58 163.102 44.4 162.492 44.4Z" fill="black" fill-opacity="0.8"/>
<path d="M17.802 6.04507V44.6687C16.9257 44.7039 12.1483 43.7129 11.0171 43.3004C8.75551 42.4586 5.31061 41.1437 2.47037 37.7425C0.436794 35.3153 0.234805 33.6323 0.208741 32.8517C0.191149 32.3611 0.1299 30.5816 1.15549 30.003C2.93821 29.0009 5.31973 31.6157 6.56425 32.4836C7.82636 33.3691 8.63301 33.7463 9.56151 33.8773C10.1479 33.9561 10.5519 34.018 10.8764 33.7984C11.8759 33.1149 11.4902 30.5028 10.7272 28.6881C8.85129 24.2085 4.49483 24.1271 4.15275 20.7284C4.11757 20.413 3.94229 18.6336 5.0995 17.5813C6.81771 16.0175 8.85129 17.9142 10.4379 18.7541C10.7096 18.8942 12.7614 19.9921 13.8658 19.3327C14.7422 18.8154 14.5761 17.4653 14.7422 11.8116C14.8302 9.02344 14.9266 7.45444 16.0571 6.55135C16.2246 6.42234 16.996 5.83461 17.802 6.04507Z" fill="#43D3A6" fill-opacity="0.6"/>
<path d="M35.422 32.8517C35.396 33.6336 35.1855 35.3153 33.1519 37.7431C32.0299 39.0932 29.4086 41.6708 24.6045 43.3011C22.5625 43.9937 19.8708 44.5899 17.802 44.6694V6.04507H17.8112C18.6263 5.83461 19.4062 6.42233 19.5646 6.5533C20.7042 7.45639 20.8026 9.02539 20.8794 11.8135C21.0456 17.4673 20.8879 18.8173 21.7558 19.3347C22.8602 19.9921 24.9205 18.8962 25.1922 18.7561C26.7788 17.9142 28.8039 16.0194 30.5222 17.5832C31.6878 18.6336 31.5034 20.413 31.4774 20.7258C31.1353 24.127 26.7788 24.2059 24.9029 28.6855C24.1399 30.5001 23.7542 33.1123 24.7537 33.7958C25.0795 34.0154 25.4815 33.9535 26.0686 33.8747C26.9893 33.7444 27.8044 33.3664 29.0659 32.4809C30.3111 31.613 32.6952 29.0009 34.4662 30.0004C35.4924 30.5816 35.4312 32.361 35.422 32.8517Z" fill="#43D3A6"/>
<path d="M18.4178 54H17.1869L17.5127 44.6687H18.092L18.4178 54Z" fill="#43D3A6"/>
</svg>
