<svg width="186" height="108" viewBox="0 0 186 108" fill="none" xmlns="http://www.w3.org/2000/svg">
<g filter="url(#filter0_d)">
<path d="M8 23C8 17.4772 12.4772 13 18 13H157.5L162.504 6.84073C163.286 5.87871 164.746 5.85207 165.562 6.7849L171 13C174.866 13 178 16.134 178 20V88C178 93.5229 173.523 98 168 98H18C12.4772 98 8 93.5229 8 88V23Z" fill="white"/>
</g>
<path d="M39.184 32.8V44H38.016V38.832H31.008V44H29.824V32.8H31.008V37.792H38.016V32.8H39.184ZM50.225 40.144H43.185C43.249 41.0187 43.585 41.728 44.193 42.272C44.801 42.8053 45.569 43.072 46.497 43.072C47.0196 43.072 47.4996 42.9813 47.937 42.8C48.3743 42.608 48.753 42.3307 49.073 41.968L49.713 42.704C49.3396 43.152 48.8703 43.4933 48.305 43.728C47.7503 43.9627 47.137 44.08 46.465 44.08C45.601 44.08 44.833 43.8987 44.161 43.536C43.4996 43.1627 42.9823 42.6507 42.609 42C42.2356 41.3493 42.049 40.6133 42.049 39.792C42.049 38.9707 42.225 38.2347 42.577 37.584C42.9396 36.9333 43.4303 36.4267 44.049 36.064C44.6783 35.7013 45.3823 35.52 46.161 35.52C46.9396 35.52 47.6383 35.7013 48.257 36.064C48.8756 36.4267 49.361 36.9333 49.713 37.584C50.065 38.224 50.241 38.96 50.241 39.792L50.225 40.144ZM46.161 36.496C45.3503 36.496 44.6676 36.7573 44.113 37.28C43.569 37.792 43.2596 38.464 43.185 39.296H49.153C49.0783 38.464 48.7636 37.792 48.209 37.28C47.665 36.7573 46.9823 36.496 46.161 36.496ZM52.8506 32.128H53.9866V44H52.8506V32.128ZM61.7808 35.52C62.5701 35.52 63.2848 35.7013 63.9248 36.064C64.5648 36.416 65.0661 36.9173 65.4288 37.568C65.7914 38.2187 65.9728 38.96 65.9728 39.792C65.9728 40.6347 65.7914 41.3813 65.4288 42.032C65.0661 42.6827 64.5648 43.1893 63.9248 43.552C63.2954 43.904 62.5808 44.08 61.7808 44.08C61.0981 44.08 60.4794 43.9413 59.9248 43.664C59.3808 43.376 58.9328 42.96 58.5808 42.416V47.104H57.4448V35.584H58.5328V37.248C58.8741 36.6933 59.3221 36.2667 59.8768 35.968C60.4421 35.6693 61.0768 35.52 61.7808 35.52ZM61.7008 43.072C62.2874 43.072 62.8208 42.9387 63.3008 42.672C63.7808 42.3947 64.1541 42.0053 64.4208 41.504C64.6981 41.0027 64.8368 40.432 64.8368 39.792C64.8368 39.152 64.6981 38.5867 64.4208 38.096C64.1541 37.5947 63.7808 37.2053 63.3008 36.928C62.8208 36.6507 62.2874 36.512 61.7008 36.512C61.1034 36.512 60.5648 36.6507 60.0848 36.928C59.6154 37.2053 59.2421 37.5947 58.9648 38.096C58.6981 38.5867 58.5648 39.152 58.5648 39.792C58.5648 40.432 58.6981 41.0027 58.9648 41.504C59.2421 42.0053 59.6154 42.3947 60.0848 42.672C60.5648 42.9387 61.1034 43.072 61.7008 43.072Z" fill="#333333"/>
<path d="M32.912 79.096C32.08 79.096 31.28 78.9627 30.512 78.696C29.7547 78.4293 29.168 78.0773 28.752 77.64L29.216 76.728C29.6213 77.1333 30.16 77.464 30.832 77.72C31.504 77.9653 32.1973 78.088 32.912 78.088C33.9147 78.088 34.6667 77.9067 35.168 77.544C35.6693 77.1707 35.92 76.6907 35.92 76.104C35.92 75.656 35.7813 75.2987 35.504 75.032C35.2373 74.7653 34.9067 74.5627 34.512 74.424C34.1173 74.2747 33.568 74.1147 32.864 73.944C32.0213 73.7307 31.3493 73.528 30.848 73.336C30.3467 73.1333 29.9147 72.8293 29.552 72.424C29.2 72.0187 29.024 71.4693 29.024 70.776C29.024 70.2107 29.1733 69.6987 29.472 69.24C29.7707 68.7707 30.2293 68.3973 30.848 68.12C31.4667 67.8427 32.2347 67.704 33.152 67.704C33.792 67.704 34.416 67.7947 35.024 67.976C35.6427 68.1467 36.176 68.3867 36.624 68.696L36.224 69.64C35.7547 69.3307 35.2533 69.1013 34.72 68.952C34.1867 68.792 33.664 68.712 33.152 68.712C32.1707 68.712 31.4293 68.904 30.928 69.288C30.4373 69.6613 30.192 70.1467 30.192 70.744C30.192 71.192 30.3253 71.5547 30.592 71.832C30.8693 72.0987 31.2107 72.3067 31.616 72.456C32.032 72.5947 32.5867 72.7493 33.28 72.92C34.1013 73.1227 34.7627 73.3253 35.264 73.528C35.776 73.72 36.208 74.0187 36.56 74.424C36.912 74.8187 37.088 75.3573 37.088 76.04C37.088 76.6053 36.9333 77.1227 36.624 77.592C36.3253 78.0507 35.8613 78.4187 35.232 78.696C34.6027 78.9627 33.8293 79.096 32.912 79.096ZM47.0531 75.144H40.0131C40.0771 76.0187 40.4131 76.728 41.0211 77.272C41.6291 77.8053 42.3971 78.072 43.3251 78.072C43.8478 78.072 44.3278 77.9813 44.7651 77.8C45.2024 77.608 45.5811 77.3307 45.9011 76.968L46.5411 77.704C46.1678 78.152 45.6984 78.4933 45.1331 78.728C44.5784 78.9627 43.9651 79.08 43.2931 79.08C42.4291 79.08 41.6611 78.8987 40.9891 78.536C40.3278 78.1627 39.8104 77.6507 39.4371 77C39.0638 76.3493 38.8771 75.6133 38.8771 74.792C38.8771 73.9707 39.0531 73.2347 39.4051 72.584C39.7678 71.9333 40.2584 71.4267 40.8771 71.064C41.5064 70.7013 42.2104 70.52 42.9891 70.52C43.7678 70.52 44.4664 70.7013 45.0851 71.064C45.7038 71.4267 46.1891 71.9333 46.5411 72.584C46.8931 73.224 47.0691 73.96 47.0691 74.792L47.0531 75.144ZM42.9891 71.496C42.1784 71.496 41.4958 71.7573 40.9411 72.28C40.3971 72.792 40.0878 73.464 40.0131 74.296H45.9811C45.9064 73.464 45.5918 72.792 45.0371 72.28C44.4931 71.7573 43.8104 71.496 42.9891 71.496ZM53.9667 70.52C55.0227 70.52 55.86 70.8293 56.4787 71.448C57.108 72.056 57.4227 72.9467 57.4227 74.12V79H56.2867V74.232C56.2867 73.3573 56.068 72.6907 55.6307 72.232C55.1933 71.7733 54.5693 71.544 53.7587 71.544C52.852 71.544 52.132 71.816 51.5987 72.36C51.076 72.8933 50.8147 73.6347 50.8147 74.584V79H49.6787V70.584H50.7667V72.136C51.076 71.624 51.5027 71.2293 52.0467 70.952C52.6013 70.664 53.2413 70.52 53.9667 70.52ZM68.5154 67.128V79H67.4274V77.336C67.0861 77.9013 66.6327 78.3333 66.0674 78.632C65.5127 78.9307 64.8834 79.08 64.1794 79.08C63.3901 79.08 62.6754 78.8987 62.0354 78.536C61.3954 78.1733 60.8941 77.6667 60.5314 77.016C60.1687 76.3653 59.9874 75.624 59.9874 74.792C59.9874 73.96 60.1687 73.2187 60.5314 72.568C60.8941 71.9173 61.3954 71.416 62.0354 71.064C62.6754 70.7013 63.3901 70.52 64.1794 70.52C64.8621 70.52 65.4754 70.664 66.0194 70.952C66.5741 71.2293 67.0274 71.64 67.3794 72.184V67.128H68.5154ZM64.2754 78.072C64.8621 78.072 65.3901 77.9387 65.8594 77.672C66.3394 77.3947 66.7127 77.0053 66.9794 76.504C67.2567 76.0027 67.3954 75.432 67.3954 74.792C67.3954 74.152 67.2567 73.5813 66.9794 73.08C66.7127 72.5787 66.3394 72.1947 65.8594 71.928C65.3901 71.6507 64.8621 71.512 64.2754 71.512C63.6781 71.512 63.1394 71.6507 62.6594 71.928C62.1901 72.1947 61.8167 72.5787 61.5394 73.08C61.2727 73.5813 61.1394 74.152 61.1394 74.792C61.1394 75.432 61.2727 76.0027 61.5394 76.504C61.8167 77.0053 62.1901 77.3947 62.6594 77.672C63.1394 77.9387 63.6781 78.072 64.2754 78.072ZM77.8853 68.824V73.224H83.6773V74.248H77.8853V79H76.7013V67.8H84.3813V68.824H77.8853ZM93.9304 75.144H86.8904C86.9544 76.0187 87.2904 76.728 87.8984 77.272C88.5064 77.8053 89.2744 78.072 90.2024 78.072C90.7251 78.072 91.2051 77.9813 91.6424 77.8C92.0797 77.608 92.4584 77.3307 92.7784 76.968L93.4184 77.704C93.0451 78.152 92.5757 78.4933 92.0104 78.728C91.4557 78.9627 90.8424 79.08 90.1704 79.08C89.3064 79.08 88.5384 78.8987 87.8664 78.536C87.2051 78.1627 86.6877 77.6507 86.3144 77C85.9411 76.3493 85.7544 75.6133 85.7544 74.792C85.7544 73.9707 85.9304 73.2347 86.2824 72.584C86.6451 71.9333 87.1357 71.4267 87.7544 71.064C88.3837 70.7013 89.0877 70.52 89.8664 70.52C90.6451 70.52 91.3437 70.7013 91.9624 71.064C92.5811 71.4267 93.0664 71.9333 93.4184 72.584C93.7704 73.224 93.9464 73.96 93.9464 74.792L93.9304 75.144ZM89.8664 71.496C89.0557 71.496 88.3731 71.7573 87.8184 72.28C87.2744 72.792 86.9651 73.464 86.8904 74.296H92.8584C92.7837 73.464 92.4691 72.792 91.9144 72.28C91.3704 71.7573 90.6877 71.496 89.8664 71.496ZM103.884 75.144H96.844C96.908 76.0187 97.244 76.728 97.852 77.272C98.46 77.8053 99.228 78.072 100.156 78.072C100.679 78.072 101.159 77.9813 101.596 77.8C102.033 77.608 102.412 77.3307 102.732 76.968L103.372 77.704C102.999 78.152 102.529 78.4933 101.964 78.728C101.409 78.9627 100.796 79.08 100.124 79.08C99.26 79.08 98.492 78.8987 97.82 78.536C97.1587 78.1627 96.6413 77.6507 96.268 77C95.8947 76.3493 95.708 75.6133 95.708 74.792C95.708 73.9707 95.884 73.2347 96.236 72.584C96.5987 71.9333 97.0893 71.4267 97.708 71.064C98.3373 70.7013 99.0413 70.52 99.82 70.52C100.599 70.52 101.297 70.7013 101.916 71.064C102.535 71.4267 103.02 71.9333 103.372 72.584C103.724 73.224 103.9 73.96 103.9 74.792L103.884 75.144ZM99.82 71.496C99.0093 71.496 98.3267 71.7573 97.772 72.28C97.228 72.792 96.9187 73.464 96.844 74.296H102.812C102.737 73.464 102.423 72.792 101.868 72.28C101.324 71.7573 100.641 71.496 99.82 71.496ZM114.19 67.128V79H113.102V77.336C112.76 77.9013 112.307 78.3333 111.742 78.632C111.187 78.9307 110.558 79.08 109.854 79.08C109.064 79.08 108.35 78.8987 107.71 78.536C107.07 78.1733 106.568 77.6667 106.206 77.016C105.843 76.3653 105.662 75.624 105.662 74.792C105.662 73.96 105.843 73.2187 106.206 72.568C106.568 71.9173 107.07 71.416 107.71 71.064C108.35 70.7013 109.064 70.52 109.854 70.52C110.536 70.52 111.15 70.664 111.694 70.952C112.248 71.2293 112.702 71.64 113.054 72.184V67.128H114.19ZM109.95 78.072C110.536 78.072 111.064 77.9387 111.534 77.672C112.014 77.3947 112.387 77.0053 112.654 76.504C112.931 76.0027 113.07 75.432 113.07 74.792C113.07 74.152 112.931 73.5813 112.654 73.08C112.387 72.5787 112.014 72.1947 111.534 71.928C111.064 71.6507 110.536 71.512 109.95 71.512C109.352 71.512 108.814 71.6507 108.334 71.928C107.864 72.1947 107.491 72.5787 107.214 73.08C106.947 73.5813 106.814 74.152 106.814 74.792C106.814 75.432 106.947 76.0027 107.214 76.504C107.491 77.0053 107.864 77.3947 108.334 77.672C108.814 77.9387 109.352 78.072 109.95 78.072ZM121.987 70.52C122.776 70.52 123.491 70.7013 124.131 71.064C124.771 71.416 125.272 71.9173 125.635 72.568C125.997 73.2187 126.179 73.96 126.179 74.792C126.179 75.624 125.997 76.3653 125.635 77.016C125.272 77.6667 124.771 78.1733 124.131 78.536C123.491 78.8987 122.776 79.08 121.987 79.08C121.283 79.08 120.648 78.9307 120.083 78.632C119.528 78.3333 119.08 77.9013 118.739 77.336V79H117.651V67.128H118.787V72.184C119.139 71.64 119.587 71.2293 120.131 70.952C120.685 70.664 121.304 70.52 121.987 70.52ZM121.907 78.072C122.493 78.072 123.027 77.9387 123.507 77.672C123.987 77.3947 124.36 77.0053 124.627 76.504C124.904 76.0027 125.043 75.432 125.043 74.792C125.043 74.152 124.904 73.5813 124.627 73.08C124.36 72.5787 123.987 72.1947 123.507 71.928C123.027 71.6507 122.493 71.512 121.907 71.512C121.309 71.512 120.771 71.6507 120.291 71.928C119.821 72.1947 119.448 72.5787 119.171 73.08C118.904 73.5813 118.771 74.152 118.771 74.792C118.771 75.432 118.904 76.0027 119.171 76.504C119.448 77.0053 119.821 77.3947 120.291 77.672C120.771 77.9387 121.309 78.072 121.907 78.072ZM131.689 70.52C132.788 70.52 133.63 70.7973 134.217 71.352C134.804 71.896 135.097 72.7067 135.097 73.784V79H134.009V77.688C133.753 78.1253 133.374 78.4667 132.873 78.712C132.382 78.9573 131.796 79.08 131.113 79.08C130.174 79.08 129.428 78.856 128.873 78.408C128.318 77.96 128.041 77.368 128.041 76.632C128.041 75.9173 128.297 75.3413 128.809 74.904C129.332 74.4667 130.158 74.248 131.289 74.248H133.961V73.736C133.961 73.0107 133.758 72.4613 133.353 72.088C132.948 71.704 132.356 71.512 131.577 71.512C131.044 71.512 130.532 71.6027 130.041 71.784C129.55 71.9547 129.129 72.1947 128.777 72.504L128.265 71.656C128.692 71.2933 129.204 71.016 129.801 70.824C130.398 70.6213 131.028 70.52 131.689 70.52ZM131.289 78.184C131.929 78.184 132.478 78.04 132.937 77.752C133.396 77.4533 133.737 77.0267 133.961 76.472V75.096H131.321C129.881 75.096 129.161 75.5973 129.161 76.6C129.161 77.0907 129.348 77.48 129.721 77.768C130.094 78.0453 130.617 78.184 131.289 78.184ZM141.999 79.08C141.167 79.08 140.42 78.8987 139.759 78.536C139.108 78.1733 138.596 77.6667 138.223 77.016C137.85 76.3547 137.663 75.6133 137.663 74.792C137.663 73.9707 137.85 73.2347 138.223 72.584C138.596 71.9333 139.108 71.4267 139.759 71.064C140.42 70.7013 141.167 70.52 141.999 70.52C142.724 70.52 143.37 70.664 143.935 70.952C144.511 71.2293 144.964 71.64 145.295 72.184L144.447 72.76C144.17 72.344 143.818 72.0347 143.391 71.832C142.964 71.6187 142.5 71.512 141.999 71.512C141.391 71.512 140.842 71.6507 140.351 71.928C139.871 72.1947 139.492 72.5787 139.215 73.08C138.948 73.5813 138.815 74.152 138.815 74.792C138.815 75.4427 138.948 76.0187 139.215 76.52C139.492 77.0107 139.871 77.3947 140.351 77.672C140.842 77.9387 141.391 78.072 141.999 78.072C142.5 78.072 142.964 77.9707 143.391 77.768C143.818 77.5653 144.17 77.256 144.447 76.84L145.295 77.416C144.964 77.96 144.511 78.376 143.935 78.664C143.359 78.9413 142.714 79.08 141.999 79.08ZM150.819 74.776L148.835 76.6V79H147.699V67.128H148.835V75.176L153.859 70.584H155.267L151.667 74.024L155.603 79H154.211L150.819 74.776Z" fill="#333333"/>
<defs>
<filter id="filter0_d" x="0" y="0.101898" width="186" height="107.898" filterUnits="userSpaceOnUse" color-interpolation-filters="sRGB">
<feFlood flood-opacity="0" result="BackgroundImageFix"/>
<feColorMatrix in="SourceAlpha" type="matrix" values="0 0 0 0 0 0 0 0 0 0 0 0 0 0 0 0 0 0 127 0"/>
<feOffset dy="2"/>
<feGaussianBlur stdDeviation="4"/>
<feColorMatrix type="matrix" values="0 0 0 0 0 0 0 0 0 0 0 0 0 0 0 0 0 0 0.2 0"/>
<feBlend mode="normal" in2="BackgroundImageFix" result="effect1_dropShadow"/>
<feBlend mode="normal" in="SourceGraphic" in2="effect1_dropShadow" result="shape"/>
</filter>
</defs>
</svg>
