<svg width="26" height="29" viewBox="0 0 26 29" fill="none" xmlns="http://www.w3.org/2000/svg">
<path d="M21 9C23.2091 9 25 7.20914 25 5C25 2.79086 23.2091 1 21 1C18.7909 1 17 2.79086 17 5C17 7.20914 18.7909 9 21 9Z" stroke="#43D3A6" stroke-width="1.5" stroke-linecap="round" stroke-linejoin="round"/>
<path d="M5 18.3333C7.20914 18.3333 9 16.5425 9 14.3333C9 12.1242 7.20914 10.3333 5 10.3333C2.79086 10.3333 1 12.1242 1 14.3333C1 16.5425 2.79086 18.3333 5 18.3333Z" stroke="#43D3A6" stroke-width="1.5" stroke-linecap="round" stroke-linejoin="round"/>
<path d="M21 27.6667C23.2091 27.6667 25 25.8758 25 23.6667C25 21.4575 23.2091 19.6667 21 19.6667C18.7909 19.6667 17 21.4575 17 23.6667C17 25.8758 18.7909 27.6667 21 27.6667Z" stroke="#43D3A6" stroke-width="1.5" stroke-linecap="round" stroke-linejoin="round"/>
<path d="M8.45312 16.3467L17.5598 21.6533" stroke="#43D3A6" stroke-width="1.5" stroke-linecap="round" stroke-linejoin="round"/>
<path d="M17.5465 7.01333L8.45312 12.32" stroke="#43D3A6" stroke-width="1.5" stroke-linecap="round" stroke-linejoin="round"/>
</svg>
