<svg width="80" height="22" viewBox="0 0 80 22" fill="none" xmlns="http://www.w3.org/2000/svg">
<path d="M0 11C0 4.92487 4.92487 0 11 0H80V22H11C4.92487 22 0 17.0751 0 11Z" fill="#333333"/>
<path d="M27.4054 16.084C26.6774 16.084 25.9774 15.9673 25.3054 15.734C24.6428 15.5007 24.1294 15.1927 23.7654 14.81L24.1714 14.012C24.5261 14.3667 24.9974 14.656 25.5854 14.88C26.1734 15.0947 26.7801 15.202 27.4054 15.202C28.2828 15.202 28.9408 15.0433 29.3794 14.726C29.8181 14.3993 30.0374 13.9793 30.0374 13.466C30.0374 13.074 29.9161 12.7613 29.6734 12.528C29.4401 12.2947 29.1508 12.1173 28.8054 11.996C28.4601 11.8653 27.9794 11.7253 27.3634 11.576C26.6261 11.3893 26.0381 11.212 25.5994 11.044C25.1608 10.8667 24.7828 10.6007 24.4654 10.246C24.1574 9.89133 24.0034 9.41067 24.0034 8.804C24.0034 8.30933 24.1341 7.86133 24.3954 7.46C24.6568 7.04933 25.0581 6.72267 25.5994 6.48C26.1408 6.23733 26.8128 6.116 27.6154 6.116C28.1754 6.116 28.7214 6.19533 29.2534 6.354C29.7948 6.50333 30.2614 6.71333 30.6534 6.984L30.3034 7.81C29.8928 7.53933 29.4541 7.33867 28.9874 7.208C28.5208 7.068 28.0634 6.998 27.6154 6.998C26.7568 6.998 26.1081 7.166 25.6694 7.502C25.2401 7.82867 25.0254 8.25333 25.0254 8.776C25.0254 9.168 25.1421 9.48533 25.3754 9.728C25.6181 9.96133 25.9168 10.1433 26.2714 10.274C26.6354 10.3953 27.1208 10.5307 27.7274 10.68C28.4461 10.8573 29.0248 11.0347 29.4634 11.212C29.9114 11.38 30.2894 11.6413 30.5974 11.996C30.9054 12.3413 31.0594 12.8127 31.0594 13.41C31.0594 13.9047 30.9241 14.3573 30.6534 14.768C30.3921 15.1693 29.9861 15.4913 29.4354 15.734C28.8848 15.9673 28.2081 16.084 27.4054 16.084ZM36.7117 12.304L34.9757 13.9V16H33.9817V5.612H34.9757V12.654L39.3717 8.636H40.6037L37.4537 11.646L40.8977 16H39.6797L36.7117 12.304ZM43.1555 8.636H44.1495V16H43.1555V8.636ZM43.6595 7.026C43.4542 7.026 43.2815 6.956 43.1415 6.816C43.0015 6.676 42.9315 6.508 42.9315 6.312C42.9315 6.12533 43.0015 5.962 43.1415 5.822C43.2815 5.682 43.4542 5.612 43.6595 5.612C43.8649 5.612 44.0375 5.682 44.1775 5.822C44.3175 5.95267 44.3875 6.11133 44.3875 6.298C44.3875 6.50333 44.3175 6.676 44.1775 6.816C44.0375 6.956 43.8649 7.026 43.6595 7.026ZM51.5843 8.58C52.275 8.58 52.9003 8.73867 53.4603 9.056C54.0203 9.364 54.459 9.80267 54.7763 10.372C55.0936 10.9413 55.2523 11.59 55.2523 12.318C55.2523 13.0553 55.0936 13.7087 54.7763 14.278C54.459 14.8473 54.0203 15.2907 53.4603 15.608C52.9096 15.916 52.2843 16.07 51.5843 16.07C50.987 16.07 50.4456 15.9487 49.9603 15.706C49.4843 15.454 49.0923 15.09 48.7843 14.614V18.716H47.7903V8.636H48.7423V10.092C49.041 9.60667 49.433 9.23333 49.9183 8.972C50.413 8.71067 50.9683 8.58 51.5843 8.58ZM51.5143 15.188C52.0276 15.188 52.4943 15.0713 52.9143 14.838C53.3343 14.5953 53.661 14.2547 53.8943 13.816C54.137 13.3773 54.2583 12.878 54.2583 12.318C54.2583 11.758 54.137 11.2633 53.8943 10.834C53.661 10.3953 53.3343 10.0547 52.9143 9.812C52.4943 9.56933 52.0276 9.448 51.5143 9.448C50.9916 9.448 50.5203 9.56933 50.1003 9.812C49.6896 10.0547 49.363 10.3953 49.1203 10.834C48.887 11.2633 48.7703 11.758 48.7703 12.318C48.7703 12.878 48.887 13.3773 49.1203 13.816C49.363 14.2547 49.6896 14.5953 50.1003 14.838C50.5203 15.0713 50.9916 15.188 51.5143 15.188Z" fill="white"/>
</svg>
