<svg width="345" height="276" fill="none" xmlns="http://www.w3.org/2000/svg"><path d="M255.127 160.42l-68.214-85.24a22.9 22.9 0 01-11.011 5.57c-12.841 2.53-25.385-6.24-28.012-19.587-1.859-9.435 1.739-18.626 8.54-24.1L133.155 8 .65 121.245l121.972 152.42L255.127 160.42z" fill="#F2F2F2"/><path d="M29.735 274.44h314.392M219.956 33.378a5.226 5.226 0 100-10.452 5.226 5.226 0 000 10.452zm69.039 151.885a5.225 5.225 0 005.225-5.226 5.225 5.225 0 10-5.225 5.226zM61.085 46.478a5.226 5.226 0 100-10.452 5.226 5.226 0 000 10.452z" stroke="#3F3D56" stroke-width="2" stroke-miterlimit="10"/><path d="M170.372 76.702c10.621 0 19.232-8.61 19.232-19.231 0-10.622-8.611-19.232-19.232-19.232-10.621 0-19.232 8.61-19.232 19.232 0 10.621 8.611 19.231 19.232 19.231z" fill="#F2F2F2"/><path d="M56.193 46.725h85.19a18.114 18.114 0 0117.667 14.127l43.052 190.926a14.641 14.641 0 01-11.057 17.507c-.822.189-1.658.307-2.5.354l-87.583 4.291a19.339 19.339 0 01-19.98-15.872L56.565 123.065l-1.816.52-4.673-25.587 1.87-.467-6.816-37.67a11.141 11.141 0 0111.064-13.136z" fill="#3F3D56"/><path d="M130.167 50.84h9.945a12.517 12.517 0 0112.229 9.849l41.313 189.368a7.749 7.749 0 01-5.916 9.226 7.23 7.23 0 01-1.144.163l-87.3 5.722a10.041 10.041 0 01-10.54-8.243L53.498 61.195a8.808 8.808 0 018.657-10.356h9.435a4.152 4.152 0 014.008 3.074 3.668 3.668 0 003.54 2.712h44.783a6.263 6.263 0 006.246-5.786z" fill="#43D3A6"/><path d="M161.167 121.029H70.839v.446h90.328v-.446zm3.558 14.463H73.509v.446h91.216v-.446zm-88.182-15.168l2.05-2.736-.354-.266-1.774 2.365-6.836-5.594-.28.344 7.194 5.887zm8.603 43.275l2.054-2.737-.358-.265-1.773 2.365-6.834-5.594-.283.347 7.194 5.884zm86.389.045l-94.551 1.998.01.446 94.551-1.998-.01-.446zm2.888 13.127l-96.33 2.22.01.446 96.331-2.22-.011-.446z" fill="#fff"/><path opacity=".1" d="M115.361 214.695a21.137 21.137 0 0042.269 0c0-.266 0-.528-.018-.79a21.128 21.128 0 00-21.513-20.355 21.127 21.127 0 00-14.693 6.332 21.126 21.126 0 00-6.045 14.813z" fill="#fff"/><path opacity=".1" d="M117.375 222.926v.79a21.143 21.143 0 0023.738 11.599 21.136 21.136 0 0016.517-20.62c0-.266 0-.528-.018-.79a21.131 21.131 0 00-23.737-11.604 21.136 21.136 0 00-16.514 20.625h.014z" fill="#fff"/><path d="M245.985 104.201c7.196 0 13.029-5.833 13.029-13.029 0-7.195-5.833-13.029-13.029-13.029-7.195 0-13.028 5.834-13.028 13.03 0 7.195 5.833 13.028 13.028 13.028z" fill="#2F2E41"/><path d="M260.041 254.436l2.478 10.622h-6.018l-2.479-12.038 6.019 1.416zm-29.032 0v9.914l-6.018.708v-10.622h6.018zm30.802-112.586s-.708 15.224-1.416 16.286c-.708 1.062-7.081 16.286-7.081 16.286l-3.186-9.913s4.956-8.143 4.248-12.746c-.708-4.602-.262-10.267-.262-10.267l7.697.354zm-20.18-36.82c5.475 0 9.913-4.439 9.913-9.914s-4.438-9.913-9.913-9.913c-5.475 0-9.914 4.438-9.914 9.913 0 5.475 4.439 9.914 9.914 9.914z" fill="#9F616A"/><path d="M249.774 96.178s-.354 14.162 2.124 16.286c2.478 2.125-14.162.355-14.162.355s3.541-9.914.708-12.038c-2.832-2.124 11.33-4.603 11.33-4.603z" fill="#9F616A"/><path d="M236.674 112.11s2.124-3.894 4.957-3.54c2.832.354 12.037 1.062 12.391 1.77.354.708 1.416 3.187 2.124 3.895.709.708 6.019 1.77 6.373 6.018.354 4.249-12.745 30.094-12.745 30.094s1.77 6.019 1.416 7.435c-.354 1.416 1.77 5.665 1.416 7.435-.354 1.77 5.311 12.392 2.478 26.199v22.305s9.56 38.591 6.727 41.424c-2.832 2.832-12.391 1.062-14.162 0-1.77-1.063-9.205-54.523-9.205-54.523l-3.54-18.057-.354 39.653s.708 33.281-1.77 34.343c-2.479 1.062-12.038 1.416-12.746-.708-.552-1.657-3.257-45.736-4.422-65.06a72.198 72.198 0 011.561-19.89c1.473-6.684 3.611-14.533 6.047-17.723 4.603-6.019 7.435-25.138 7.435-25.138l-6.019-10.975s3.541-3.54 5.665-3.54 6.373-1.417 6.373-1.417z" fill="#2F2E41"/><path d="M260.395 117.775l1.869 1.271s1.317 22.804.255 24.22c-1.062 1.417-8.444.726-9-.52-.555-1.246 6.876-24.971 6.876-24.971z" fill="#2F2E41"/><path d="M228.825 138.512c1.034 7.187 1.954 13.584-3.357 19.376a99.284 99.284 0 01-17.889 15.501c-.652 1.72-10.193 14.363-10.678 9.318-.485-5.045 2.811-8.996 7.495-13.259s11.241-13.517 14.937-18.594c3.696-5.077 2.177-8.246 2.046-12.484-.131-4.238 5.991.191 7.446.142z" fill="#9F616A"/><path d="M224.991 258.614s-.354 3.966-1.417 5.028c-1.062 1.062-3.894 2.478-3.54 6.372.354 3.895 2.655 4.072 2.655 4.072l-.177-.885 1.062.354.177.531h9.914s.177-3.718-.177-5.488c-.354-1.77-.354-10.267-1.417-9.913-1.062.354-3.894.708-4.602 2.124-.708 1.416-2.832.921-2.478-2.195zm36.112 0s.354 3.966 1.416 5.028c1.062 1.062 3.895 2.478 3.541 6.372-.354 3.895-2.656 4.072-2.656 4.072l.177-.885-1.062.354-.177.531h-9.913s-.177-3.718.177-5.488c.354-1.77.354-10.267 1.416-9.913 1.062.354 3.895.708 4.603 2.124.708 1.416 2.832.921 2.478-2.195zm-31.51-142.609l-4.956 1.062s0 7.789-1.417 10.975c-1.416 3.187-3.894 10.622-2.832 10.976 1.062.354 10.975 5.311 11.683 2.478.709-2.832 2.479-25.491-2.478-25.491zm30.508-28.961c7.196 0 13.029-5.833 13.029-13.029 0-7.195-5.833-13.029-13.029-13.029-7.195 0-13.029 5.834-13.029 13.03 0 7.195 5.834 13.028 13.029 13.028z" fill="#2F2E41"/><path d="M271.339 84.806a13.037 13.037 0 01-20.121-6.843 13.038 13.038 0 009.461 11.173 13.031 13.031 0 0016.385-14.452 13.325 13.325 0 00-.432-2.064 13.039 13.039 0 01-5.293 12.186z" fill="#2F2E41"/><path d="M249.462 102.898a9.555 9.555 0 009.556-9.555 9.556 9.556 0 00-9.556-9.556c-5.277 0-9.556 4.278-9.556 9.555 0 5.278 4.279 9.556 9.556 9.556z" fill="#2F2E41"/><path d="M241.425 96.384c4.677 0 8.469-2.966 8.469-6.624 0-3.659-3.792-6.625-8.469-6.625s-8.468 2.966-8.468 6.625c0 3.658 3.791 6.624 8.468 6.624z" fill="#2F2E41"/><path d="M239.167 99.39c.887 0 1.607-1.273 1.607-2.843s-.72-2.843-1.607-2.843c-.888 0-1.608 1.273-1.608 2.843s.72 2.843 1.608 2.843z" fill="#A0616A"/><path d="M77.372 76.462h-5.559l-.878-3.272h15.118l.878 3.272h-5.559l3.77 14.076h-4l-3.77-14.076zm25.349 8.5H92.634a4.567 4.567 0 001.813 1.958c.825.48 1.765.724 2.72.708a4.45 4.45 0 001.77-.311c.489-.214.915-.55 1.235-.977l2.655 2.23c-.871 1.437-2.512 2.156-4.924 2.156-1.456.01-2.897-.29-4.228-.882a9.442 9.442 0 01-3.328-2.439 8.795 8.795 0 01-1.894-3.54 6.149 6.149 0 010-3.54 4.408 4.408 0 011.894-2.45 6.19 6.19 0 013.396-.882c1.303 0 2.59.287 3.77.842a9.083 9.083 0 013.137 2.419 9.316 9.316 0 011.884 3.653c-.004.064.081.41.187 1.055zm-10.196-4.287a2.435 2.435 0 00-.531 2.029h6.567a4.56 4.56 0 00-1.632-2.022 4.104 4.104 0 00-2.383-.754 2.618 2.618 0 00-2.021.747zm15.524 9.651a11.034 11.034 0 01-2.804-1.027l.546-2.775a10.82 10.82 0 002.404.93c.84.228 1.706.347 2.577.355 1.636 0 2.344-.405 2.124-1.215a1.235 1.235 0 00-.888-.817c-.709-.21-1.435-.35-2.171-.422a23.627 23.627 0 01-2.853-.57 5.926 5.926 0 01-2.153-1.14 4.384 4.384 0 01-1.416-2.33 3.158 3.158 0 01.131-2.24 3.211 3.211 0 011.724-1.526 7.912 7.912 0 013.162-.546c.973.003 1.944.107 2.896.312.883.17 1.739.457 2.546.853l-.539 2.765a9.203 9.203 0 00-4.107-.991 3.363 3.363 0 00-1.77.354.757.757 0 00-.379.892 1.265 1.265 0 00.903.868c.738.219 1.492.376 2.255.47.954.143 1.9.337 2.833.581.781.22 1.505.605 2.124 1.13a4.348 4.348 0 011.377 2.28 3.023 3.023 0 01-.148 2.205 3.249 3.249 0 01-1.771 1.498 8.419 8.419 0 01-3.239.534 14.199 14.199 0 01-3.364-.428zm20.411-.432a2.86 2.86 0 01-1.232.63 7.1 7.1 0 01-5.696-1.002 6.316 6.316 0 01-2.277-3.568l-1.469-5.477h-2.071l-.797-2.975h2.057l-.867-3.246h3.866l.867 3.246h3.321l.797 2.975h-3.321l1.483 5.413c.116.505.39.96.783 1.3.379.31.858.474 1.349.46a1.98 1.98 0 001.416-.496l1.791 2.74zm3.541.432a11.006 11.006 0 01-2.804-1.027l.545-2.775a10.82 10.82 0 002.404.93c.839.228 1.704.347 2.574.355 1.635 0 2.343-.405 2.124-1.215a1.235 1.235 0 00-.889-.817 11.707 11.707 0 00-2.184-.418 23.682 23.682 0 01-2.854-.57 5.932 5.932 0 01-2.152-1.14 4.386 4.386 0 01-1.417-2.33 3.158 3.158 0 01.132-2.241 3.185 3.185 0 011.72-1.526 7.927 7.927 0 013.165-.545c.974.003 1.945.107 2.896.311.883.17 1.739.457 2.546.854l-.531 2.761a9.21 9.21 0 00-4.107-.991 3.363 3.363 0 00-1.77.354.753.753 0 00-.379.892 1.251 1.251 0 00.899.868c.739.218 1.494.376 2.259.47a26.77 26.77 0 012.832.581c.781.22 1.506.605 2.125 1.13a4.316 4.316 0 011.38 2.28c.23.728.175 1.516-.152 2.205a3.25 3.25 0 01-1.77 1.498 8.42 8.42 0 01-3.24.534 14.095 14.095 0 01-3.352-.428zm-34.46 70.044h-5.087l-.414 2.394h-1.417l1.77-9.577h1.37l6.915 9.577h-1.416l-1.72-2.394zm-.771-1.094l-3.325-4.701-.807 4.694 4.132.007zm14.204 3.488l-1.884-6.979-1.904 5.814h-.627l-5.006-5.771 1.859 6.936h-1.314l-2.563-9.577h1.119l5.799 6.727 2.124-6.727h1.119l2.581 9.577h-1.303zm5.732-.528a6.927 6.927 0 01-2.28-1.752 6.343 6.343 0 01-1.331-2.511 4.378 4.378 0 010-2.51 3.185 3.185 0 011.349-1.749 4.404 4.404 0 012.428-.637c.735 0 1.463.128 2.153.379a5.967 5.967 0 011.887 1.112l-.658.863a4.64 4.64 0 00-2.999-1.136 3.23 3.23 0 00-1.802.478 2.383 2.383 0 00-.992 1.32 3.34 3.34 0 00.018 1.88c.183.695.521 1.338.988 1.884a5.133 5.133 0 001.703 1.321c.64.314 1.344.478 2.057.477a2.7 2.7 0 002.386-1.15l1.119.864a2.915 2.915 0 01-1.292 1.122 4.689 4.689 0 01-1.955.382 6.297 6.297 0 01-2.779-.637zm-32.671-42.999a6.043 6.043 0 01-1.877-.899l.227-1.105a6.493 6.493 0 003.59 1.148c.821 0 1.397-.14 1.728-.418a.998.998 0 00.311-1.112 1.505 1.505 0 00-.556-.828 3.062 3.062 0 00-.952-.489c-.354-.113-.85-.241-1.484-.382a17.056 17.056 0 01-1.947-.538 4.202 4.202 0 01-1.398-.829 2.963 2.963 0 01-.893-1.508c-.14-.464-.128-.96.036-1.416.19-.453.544-.817.991-1.02a4.428 4.428 0 012.008-.382 7.515 7.515 0 011.791.226 6.164 6.164 0 011.632.652l-.163 1.133a7.06 7.06 0 00-1.494-.602 5.707 5.707 0 00-1.44-.206c-.804 0-1.367.149-1.69.439a1.065 1.065 0 00-.297 1.133c.085.333.282.626.56.829.295.219.625.387.977.495.482.151.97.276 1.466.376.657.143 1.306.323 1.943.538.51.186.98.464 1.388.821.44.395.75.913.889 1.487a2.23 2.23 0 01-.046 1.416c-.194.46-.558.825-1.016 1.02a4.6 4.6 0 01-2.022.375 7.552 7.552 0 01-2.262-.354zm13.779-2.244h-5.268l-.428 2.478h-1.46l1.835-9.913h1.416l7.159 9.913h-1.487l-1.767-2.478zm-.8-1.133l-3.441-4.858-.836 4.858h4.277zm4.659-5.07h-3.399l-.329-1.232h8.21l.33 1.232h-3.399l2.326 8.681h-1.416l-2.323-8.681z" fill="#fff"/><path d="M298.528 58h-10.049v-9.817h10.056L298.528 58zm-.145-14.802h-9.758c0-15.256 14.626-14.364 14.626-24.016 0-5.316-4.389-9.575-9.751-9.575-5.362 0-9.749 4.592-9.749 9.726H274a19.172 19.172 0 011.475-7.403 19.296 19.296 0 014.227-6.277 19.477 19.477 0 016.33-4.19A19.616 19.616 0 01293.5 0C304.271 0 313 8.52 313 19.182c0 12.069-14.625 13.443-14.625 24.016h.008z" fill="#43D3A6"/></svg>