<svg width="303" height="269" viewBox="0 0 303 269" fill="none" xmlns="http://www.w3.org/2000/svg">
<path d="M260.397 222.266C255.285 237.226 248.71 252.155 240.287 266.363C240.1 266.683 239.911 266.997 239.72 267.316L218.867 260.725C218.987 260.423 219.119 260.086 219.26 259.717C227.671 237.986 278.415 105.582 276.137 79.4769C276.382 81.6138 284.321 152.33 260.397 222.266Z" fill="#E6E6E6"/>
<path d="M244.31 267.635C244.026 267.924 243.736 268.212 243.443 268.492L227.799 263.548C228.011 263.292 228.257 262.991 228.54 262.651C233.173 256.998 246.947 240.073 260.397 222.266C274.851 203.129 288.934 182.976 290.907 174.694C290.511 176.578 278.168 233.902 244.31 267.635Z" fill="#E6E6E6"/>
<path d="M252.129 47.1768C252.123 47.1768 252.118 47.1785 252.112 47.1786V13.6762C252.112 10.0491 250.67 6.57045 248.103 4.00567C245.536 1.44088 242.054 0 238.423 0H133.44C129.809 0 126.327 1.44088 123.76 4.00567C121.193 6.57045 119.751 10.0491 119.751 13.6762V30.8513C119.461 30.8575 119.185 30.9768 118.982 31.1837C118.779 31.3906 118.666 31.6686 118.665 31.9582V40.4653C118.666 40.7549 118.779 41.0329 118.982 41.2398C119.185 41.4466 119.461 41.5659 119.751 41.572V50.4839H119.695C119.549 50.4839 119.405 50.5126 119.27 50.5683C119.136 50.6241 119.013 50.7058 118.91 50.8088C118.807 50.9118 118.725 51.0341 118.669 51.1687C118.614 51.3033 118.585 51.4476 118.585 51.5932V68.0437C118.585 68.1894 118.614 68.3336 118.669 68.4682C118.725 68.6028 118.807 68.7251 118.91 68.8281C119.013 68.9311 119.136 69.0129 119.27 69.0686C119.405 69.1244 119.549 69.1531 119.695 69.153H119.751V75.6866H119.734C119.588 75.6866 119.443 75.7153 119.309 75.7711C119.174 75.8268 119.051 75.9085 118.948 76.0115C118.845 76.1146 118.763 76.2369 118.708 76.3714C118.652 76.506 118.623 76.6503 118.623 76.796V93.4073C118.623 93.553 118.652 93.6973 118.708 93.8319C118.763 93.9665 118.845 94.0888 118.948 94.1918C119.051 94.2948 119.174 94.3765 119.309 94.4323C119.443 94.488 119.588 94.5167 119.734 94.5167H119.751V255.085C119.751 258.713 121.193 262.191 123.76 264.756C126.327 267.321 129.809 268.762 133.44 268.762H238.423C242.054 268.762 245.536 267.321 248.103 264.756C250.67 262.191 252.112 258.713 252.112 255.085V79.7543C252.118 79.7543 252.123 79.756 252.129 79.756C252.389 79.7561 252.646 79.705 252.886 79.6057C253.126 79.5064 253.344 79.3609 253.527 79.1775C253.711 78.9941 253.857 78.7763 253.956 78.5367C254.055 78.297 254.106 78.0402 254.106 77.7807V49.1522C254.106 48.6283 253.898 48.1259 253.527 47.7554C253.157 47.3849 252.654 47.1768 252.129 47.1768Z" fill="#3F3D56"/>
<path d="M243.939 17.5044V251.253C243.938 254.038 242.83 256.709 240.858 258.678C238.887 260.647 236.213 261.753 233.426 261.753H138.437C135.65 261.753 132.976 260.647 131.005 258.678C129.033 256.709 127.925 254.038 127.924 251.253V17.5044C127.924 14.7187 129.032 12.0471 131.003 10.0774C132.975 8.10762 135.649 7.00101 138.437 7.00101H152.651V8.84418C152.652 11.1377 153.565 13.3369 155.188 14.9586C156.811 16.5804 159.012 17.4919 161.308 17.4929H209.634C211.927 17.4878 214.124 16.5744 215.743 14.953C217.362 13.3316 218.272 11.1346 218.272 8.84418V7.02017H233.426C236.211 7.02017 238.882 8.12414 240.853 10.0898C242.824 12.0554 243.934 14.722 243.939 17.5044Z" fill="white"/>
<path d="M149.199 37.9333H138.843C138.589 37.9333 138.345 37.8324 138.165 37.6527C137.985 37.4731 137.884 37.2294 137.884 36.9753C137.884 36.7213 137.985 36.4776 138.165 36.2979C138.345 36.1183 138.589 36.0173 138.843 36.0173H149.199C149.453 36.0173 149.697 36.1183 149.877 36.2979C150.057 36.4776 150.158 36.7213 150.158 36.9753C150.158 37.2294 150.057 37.4731 149.877 37.6527C149.697 37.8324 149.453 37.9333 149.199 37.9333Z" fill="#3F3D56"/>
<path d="M149.199 40.6157H138.843C138.589 40.6157 138.345 40.5148 138.165 40.3351C137.985 40.1554 137.884 39.9118 137.884 39.6577C137.884 39.4036 137.985 39.16 138.165 38.9803C138.345 38.8006 138.589 38.6997 138.843 38.6997H149.199C149.453 38.6997 149.697 38.8006 149.877 38.9803C150.057 39.16 150.158 39.4036 150.158 39.6577C150.158 39.9118 150.057 40.1554 149.877 40.3351C149.697 40.5148 149.453 40.6157 149.199 40.6157Z" fill="#3F3D56"/>
<path d="M149.199 43.2981H138.843C138.589 43.2981 138.345 43.1971 138.165 43.0175C137.985 42.8378 137.884 42.5941 137.884 42.3401C137.884 42.086 137.985 41.8423 138.165 41.6627C138.345 41.483 138.589 41.3821 138.843 41.3821H149.199C149.453 41.3821 149.697 41.483 149.877 41.6627C150.057 41.8423 150.158 42.086 150.158 42.3401C150.158 42.5941 150.057 42.8378 149.877 43.0175C149.697 43.1971 149.453 43.2981 149.199 43.2981Z" fill="#3F3D56"/>
<path d="M229.471 40.6348H229.122L228.988 40.5237C229.429 39.9987 229.671 39.3352 229.671 38.6499C229.668 38.086 229.497 37.5357 229.181 37.0686C228.865 36.6014 228.418 36.2384 227.895 36.0255C227.372 35.8125 226.798 35.7591 226.245 35.8721C225.693 35.9851 225.186 36.2593 224.789 36.6602C224.392 37.061 224.123 37.5705 224.016 38.1241C223.908 38.6777 223.968 39.2506 224.187 39.7704C224.406 40.2902 224.774 40.7335 225.245 41.0442C225.716 41.355 226.268 41.5192 226.832 41.5162C227.516 41.5113 228.178 41.2704 228.704 40.8341L228.835 40.9452V41.2978L231.036 43.5011L231.696 42.842L229.471 40.6348ZM226.832 40.6348C226.44 40.6364 226.055 40.5214 225.727 40.3046C225.4 40.0877 225.144 39.7787 224.992 39.4166C224.84 39.0545 224.8 38.6555 224.875 38.2702C224.95 37.8849 225.138 37.5304 225.415 37.2518C225.691 36.9731 226.045 36.7827 226.43 36.7046C226.815 36.6265 227.214 36.6643 227.578 36.8131C227.942 36.9619 228.253 37.2152 228.472 37.5407C228.692 37.8663 228.81 38.2496 228.812 38.6422L228.812 38.6499C228.813 38.909 228.763 39.166 228.666 39.406C228.568 39.646 228.424 39.8644 228.241 40.0487C228.059 40.233 227.842 40.3796 227.603 40.4802C227.364 40.5808 227.107 40.6333 226.848 40.6348C226.843 40.6348 226.838 40.6348 226.833 40.6348H226.832Z" fill="#3F3D56"/>
<path d="M170.296 73.1873H151.692C150.573 73.1873 149.5 72.7432 148.708 71.9527C147.917 71.1622 147.473 70.0901 147.473 68.9721C147.473 67.8542 147.917 66.7821 148.708 65.9916C149.5 65.2011 150.573 64.757 151.692 64.757H170.296C171.415 64.757 172.488 65.2011 173.279 65.9916C174.07 66.7821 174.515 67.8542 174.515 68.9721C174.515 70.0901 174.07 71.1622 173.279 71.9527C172.488 72.7432 171.415 73.1873 170.296 73.1873Z" fill="#43D3A6"/>
<path d="M227.25 82.384H149.774C149.164 82.384 148.578 82.1417 148.147 81.7106C147.715 81.2794 147.473 80.6946 147.473 80.0848C147.473 79.475 147.715 78.8902 148.147 78.459C148.578 78.0279 149.164 77.7856 149.774 77.7856H227.25C227.86 77.7856 228.446 78.0279 228.877 78.459C229.309 78.8902 229.551 79.475 229.551 80.0848C229.551 80.6946 229.309 81.2794 228.877 81.7106C228.446 82.1417 227.86 82.384 227.25 82.384Z" fill="#E6E6E6"/>
<path d="M178.233 91.5806H149.774C149.164 91.5806 148.578 91.3384 148.147 90.9072C147.715 90.4761 147.473 89.8913 147.473 89.2815C147.473 88.6717 147.715 88.0869 148.147 87.6557C148.578 87.2245 149.164 86.9823 149.774 86.9823H178.233C178.843 86.9823 179.429 87.2245 179.86 87.6557C180.292 88.0869 180.534 88.6717 180.534 89.2815C180.534 89.8913 180.292 90.4761 179.86 90.9072C179.429 91.3384 178.843 91.5806 178.233 91.5806Z" fill="#E6E6E6"/>
<path d="M170.296 175.117H151.692C150.573 175.117 149.5 174.673 148.708 173.883C147.917 173.092 147.473 172.02 147.473 170.902C147.473 169.784 147.917 168.712 148.708 167.921C149.5 167.131 150.573 166.687 151.692 166.687H170.296C171.415 166.687 172.488 167.131 173.279 167.921C174.07 168.712 174.515 169.784 174.515 170.902C174.515 172.02 174.07 173.092 173.279 173.883C172.488 174.673 171.415 175.117 170.296 175.117Z" fill="#43D3A6"/>
<path d="M227.25 184.314H149.774C149.164 184.314 148.578 184.072 148.147 183.64C147.715 183.209 147.473 182.624 147.473 182.015C147.473 181.405 147.715 180.82 148.147 180.389C148.578 179.958 149.164 179.716 149.774 179.716H227.25C227.86 179.716 228.446 179.958 228.877 180.389C229.309 180.82 229.551 181.405 229.551 182.015C229.551 182.624 229.309 183.209 228.877 183.64C228.446 184.072 227.86 184.314 227.25 184.314Z" fill="#E6E6E6"/>
<path d="M178.233 193.511H149.774C149.164 193.511 148.578 193.268 148.147 192.837C147.715 192.406 147.473 191.821 147.473 191.211C147.473 190.602 147.715 190.017 148.147 189.586C148.578 189.154 149.164 188.912 149.774 188.912H178.233C178.843 188.912 179.429 189.154 179.86 189.586C180.292 190.017 180.534 190.602 180.534 191.211C180.534 191.821 180.292 192.406 179.86 192.837C179.429 193.268 178.843 193.511 178.233 193.511Z" fill="#E6E6E6"/>
<path d="M170.296 222.25H151.692C150.573 222.25 149.5 221.806 148.708 221.016C147.917 220.225 147.473 219.153 147.473 218.035C147.473 216.917 147.917 215.845 148.708 215.054C149.5 214.264 150.573 213.82 151.692 213.82H170.296C171.415 213.82 172.488 214.264 173.279 215.054C174.07 215.845 174.515 216.917 174.515 218.035C174.515 219.153 174.07 220.225 173.279 221.016C172.488 221.806 171.415 222.25 170.296 222.25Z" fill="#43D3A6"/>
<path d="M227.25 231.447H149.774C149.164 231.447 148.578 231.205 148.147 230.773C147.715 230.342 147.473 229.757 147.473 229.148C147.473 228.538 147.715 227.953 148.147 227.522C148.578 227.091 149.164 226.849 149.774 226.849H227.25C227.86 226.849 228.446 227.091 228.877 227.522C229.309 227.953 229.551 228.538 229.551 229.148C229.551 229.757 229.309 230.342 228.877 230.773C228.446 231.205 227.86 231.447 227.25 231.447Z" fill="#E6E6E6"/>
<path d="M178.233 240.644H149.774C149.164 240.644 148.578 240.401 148.147 239.97C147.715 239.539 147.473 238.954 147.473 238.344C147.473 237.735 147.715 237.15 148.147 236.719C148.578 236.287 149.164 236.045 149.774 236.045H178.233C178.843 236.045 179.429 236.287 179.86 236.719C180.292 237.15 180.534 237.735 180.534 238.344C180.534 238.954 180.292 239.539 179.86 239.97C179.429 240.401 178.843 240.644 178.233 240.644Z" fill="#E6E6E6"/>
<path d="M238.181 151.167H90.1329C89.2686 151.167 88.4399 150.823 87.8288 150.212C87.2176 149.602 86.8738 148.774 86.8728 147.91V107.675C86.8738 106.811 87.2176 105.983 87.8287 105.373C88.4399 104.762 89.2686 104.419 90.1329 104.418H238.181C239.045 104.419 239.874 104.762 240.485 105.373C241.096 105.983 241.44 106.811 241.441 107.675V147.91C241.44 148.774 241.096 149.602 240.485 150.212C239.874 150.823 239.045 151.166 238.181 151.167Z" fill="#43D3A6"/>
<path d="M142.785 122.811H117.067C115.433 122.811 114.104 120.92 114.104 118.596C114.104 116.272 115.433 114.381 117.067 114.381H142.785C144.418 114.381 145.747 116.272 145.747 118.596C145.747 120.92 144.418 122.811 142.785 122.811Z" fill="white"/>
<path d="M211.908 132.008H116.406C115.795 132.008 115.21 131.766 114.779 131.334C114.347 130.903 114.104 130.318 114.104 129.709C114.104 129.099 114.347 128.514 114.779 128.083C115.21 127.652 115.795 127.409 116.406 127.409H211.908C212.519 127.409 213.104 127.652 213.536 128.083C213.967 128.514 214.21 129.099 214.21 129.709C214.21 130.318 213.967 130.903 213.536 131.334C213.104 131.766 212.519 132.008 211.908 132.008Z" fill="#E6E6E6"/>
<path d="M162.891 141.204H116.406C115.795 141.204 115.21 140.962 114.779 140.531C114.347 140.1 114.104 139.515 114.104 138.905C114.104 138.295 114.347 137.711 114.779 137.279C115.21 136.848 115.795 136.606 116.406 136.606H162.891C163.502 136.606 164.087 136.848 164.519 137.279C164.95 137.711 165.193 138.295 165.193 138.905C165.193 139.515 164.95 140.1 164.519 140.531C164.087 140.962 163.502 141.204 162.891 141.204Z" fill="#E6E6E6"/>
<path d="M303 268.234H0V269H303V268.234Z" fill="#3F3D56"/>
<path d="M31.9646 214.512C29.0718 222.828 32.4473 236.329 34.0148 242.355C35.5805 248.382 36.0632 255.614 36.0632 255.614C42.2103 256.578 46.6706 255.372 46.6706 255.372L44.1394 242.958C45.9474 235.605 44.1394 215.958 44.1394 215.958C44.1394 215.958 48.2363 208.365 48.5979 196.794C48.9541 185.403 51.7619 181.722 51.8505 181.609L51.8523 181.607C57.6378 184.621 64.9908 216.924 64.9908 216.924C64.3887 224.758 65.1119 236.811 67.5219 243.32C68.9836 247.454 69.5985 251.84 69.3299 256.216C70.1724 256.929 71.344 257.05 72.6096 256.845C76.0519 256.289 80.1777 253.323 80.1777 253.323C80.1777 253.323 78.8525 218.128 77.887 216.802C76.9234 215.477 77.887 207.884 77.887 207.884L76.3213 195.59C76.3213 195.59 76.5618 174.736 74.2711 171.12C72.295 167.998 71.8394 162.511 71.7508 161.07C71.7381 160.842 71.7327 160.716 71.7327 160.716L68.2451 156.537C68.2451 156.537 34.4957 154.006 31.9646 156.537C31.3426 157.159 30.9593 158.571 30.7315 160.35C30.0355 165.818 30.8328 174.736 30.8328 174.736C30.8328 174.736 31.8452 181.366 33.2916 188.115C34.1609 192.167 34.1609 196.358 33.2916 200.41C33.7675 205.152 33.3167 209.941 31.9646 214.512Z" fill="#575A89"/>
<path d="M34.0745 267.366C35.5806 269.355 44.4396 268.51 45.9474 267.89C46.8677 267.511 46.799 265.779 46.5495 263.994C46.3922 262.859 46.1608 261.702 46.0668 260.857C45.8263 258.688 46.79 254.287 46.79 254.287C46.79 254.287 44.8012 256.397 44.3202 254.287C44.1091 253.365 43.3674 252.892 42.5998 252.652C41.5669 252.34 40.4565 252.41 39.4706 252.848C37.9054 253.527 35.2928 254.975 35.7613 256.934C36.4248 259.702 34.0745 263.629 34.0745 263.629C33.8919 263.859 33.7439 264.114 33.6352 264.386C33.4281 264.876 33.3595 265.412 33.437 265.938C33.5145 266.463 33.735 266.957 34.0745 267.366Z" fill="#CBCEDA"/>
<path opacity="0.1" d="M34.0745 267.366C35.5805 269.355 44.4396 268.51 45.9474 267.89C46.8677 267.511 46.799 265.779 46.5495 263.994C45.5984 264.439 43.9804 264.809 41.2834 264.56C40.6538 264.501 40.0212 264.481 39.3892 264.502C37.4707 264.588 35.5487 264.549 33.6352 264.386C33.4281 264.876 33.3595 265.412 33.437 265.938C33.5145 266.463 33.735 266.957 34.0745 267.366Z" fill="black"/>
<path opacity="0.1" d="M64.9908 216.924C64.3887 224.758 65.1119 236.811 67.5219 243.32C68.9837 247.454 69.5985 251.84 69.3299 256.216C70.1724 256.929 71.344 257.05 72.6096 256.845C71.8828 251.761 68.7839 229.858 66.7988 212.554C64.5388 192.847 53.9622 179.287 53.9622 179.287L51.8523 181.607C57.6378 184.621 64.9908 216.924 64.9908 216.924Z" fill="black"/>
<path d="M37.6904 90.2446L39.1621 97.4764L46.3687 109.59L55.2584 105.793C55.2584 105.793 67.3411 93.1373 59.7476 91.3294C58.838 91.1347 57.9789 90.7523 57.2255 90.2066C55.7358 89.082 55.2657 87.4476 55.2584 85.8476C55.3175 84.0537 55.7375 82.2902 56.4933 80.6623L40.9448 75.7808C41.5866 77.8236 41.9616 79.9408 42.0603 82.0798C42.1796 86.3141 40.6067 88.4004 39.3158 89.3948C38.8355 89.7827 38.2831 90.0715 37.6904 90.2446Z" fill="#FBBEBE"/>
<path opacity="0.1" d="M40.9447 75.7808C41.5866 77.8236 41.9615 79.9408 42.0602 82.0798C42.3436 82.4168 42.6454 82.7379 42.9642 83.0416C44.5697 84.575 46.5601 85.6454 48.7245 86.1394C50.8889 86.6334 53.1466 86.5325 55.2584 85.8476C55.3174 84.0537 55.7374 82.2902 56.4932 80.6623L40.9447 75.7808Z" fill="black"/>
<path d="M39.1621 73.792C39.1622 76.2235 39.8832 78.6003 41.2341 80.6219C42.585 82.6435 44.505 84.2192 46.7514 85.1496C48.9978 86.08 51.4696 86.3235 53.8543 85.8491C56.239 85.3747 58.4295 84.2039 60.1488 82.4846C61.8681 80.7653 63.039 78.5748 63.5133 76.1901C63.9877 73.8054 63.7443 71.3335 62.8139 69.0872C61.8834 66.8408 60.3078 64.9208 58.2861 63.5699C56.2645 62.219 53.8877 61.4979 51.4563 61.4978C49.8401 61.4918 48.2387 61.8057 46.7444 62.4214C45.25 63.0371 43.8923 63.9425 42.7495 65.0853C41.6067 66.2281 40.7013 67.5858 40.0856 69.0801C39.4699 70.5744 39.156 72.1758 39.1621 73.792Z" fill="#FBBEBE"/>
<path opacity="0.1" d="M37.6904 90.2446L39.1621 97.4764L46.3687 109.59L55.2584 105.793C55.2584 105.793 67.3411 93.1373 59.7476 91.3294C58.838 91.1347 57.9789 90.7523 57.2255 90.2066C58.5978 93.9744 52.937 101.816 52.937 101.816C52.2789 102.785 50.7675 102.177 50.7675 102.177C47.1226 101.626 40.4096 91.1395 39.3157 89.3948C38.8355 89.7827 38.283 90.0715 37.6904 90.2446Z" fill="black"/>
<path opacity="0.1" d="M30.7314 160.35C32.8703 160.837 44.7125 163.46 49.2017 162.804C54.1428 162.081 63.7504 161.6 63.7504 161.6C63.7504 161.6 69.8686 161.931 71.7507 161.07C71.738 160.842 71.7326 160.716 71.7326 160.716L68.245 156.537C68.245 156.537 34.4956 154.006 31.9645 156.537C31.3425 157.159 30.9593 158.571 30.7314 160.35Z" fill="black"/>
<path d="M52.9376 102.177C52.9376 102.177 59.2968 93.367 56.9007 89.9375L67.6424 94.3426C67.6424 94.3426 74.1079 93.5589 76.441 103.208C76.815 104.811 76.9496 106.462 76.8405 108.105C76.7557 109.56 76.9535 112.121 78.6108 115.436C81.2625 120.739 80.6598 132.913 75.2359 134.118C69.812 135.323 67.8835 134.721 67.8835 134.721C67.8835 134.721 68.6067 156.778 71.7405 159.309C74.8743 161.84 63.7503 161.238 63.7503 161.238C63.7503 161.238 54.1429 161.72 49.2011 162.443C44.2593 163.166 30.3982 159.912 30.3982 159.912C30.3982 159.912 32.4473 150.631 33.1705 144.725C33.8937 138.819 35.5811 126.243 35.5811 126.243L23.2869 109.59C23.2869 109.59 21.1173 99.5255 28.7108 95.0658C36.3043 90.6062 39.1619 89.5097 39.1619 89.5097C39.1619 89.5097 46.7905 101.936 50.768 102.539C50.768 102.539 52.279 103.146 52.9376 102.177Z" fill="#3F3D56"/>
<path opacity="0.1" d="M67.0398 105.673C67.0398 105.673 67.1603 109.65 66.4371 111.217C65.714 112.784 63.0623 121.462 63.0623 121.462H69.0888C69.0888 121.462 65.8345 117.967 66.0755 116.279C66.3166 114.592 67.0398 105.673 67.0398 105.673Z" fill="black"/>
<path d="M49.2011 135.685C49.2011 135.685 62.5099 132.431 63.7503 129.658C64.9907 126.886 68.4096 120.682 68.4096 120.682L67.0048 118.79L60.531 123.873C60.531 123.873 52.817 130.02 49.2011 130.623C45.5851 131.225 49.2011 135.685 49.2011 135.685Z" fill="#FBBEBE"/>
<path opacity="0.05" d="M49.2011 135.685C49.2011 135.685 62.5099 132.431 63.7503 129.658C64.9907 126.886 68.4096 120.682 68.4096 120.682L67.0048 118.79L60.531 123.873C60.531 123.873 52.817 130.02 49.2011 130.623C45.5851 131.225 49.2011 135.685 49.2011 135.685Z" fill="black"/>
<path d="M37.6904 120.016V127.237H38.8511C44.5857 127.237 50.2259 128.697 55.2404 131.479L57.4154 132.687L58.0012 133.012L61.7364 124.596L58.2416 121.463C58.2416 121.463 58.1784 121.47 58.0626 121.479C57.2074 121.562 53.5102 121.871 51.9427 121.342C50.4547 120.837 48.6051 119.234 44.2208 120.354C42.0621 120.906 40.218 123.327 38.1225 122.571L37.6904 120.016Z" fill="#FBBEBE"/>
<path opacity="0.1" d="M26.0591 106.878L23.6484 109.59V116.159C23.6484 116.159 25.6975 136.89 32.2062 139.18C38.7149 141.47 50.3338 137.854 50.3338 137.854C50.3338 137.854 53.3346 129.899 51.9307 129.417C50.5269 128.935 39.5235 126.029 39.5235 126.029C39.5235 126.029 39.6791 113.869 37.2685 110.253C37.2685 110.253 38.8354 98.9228 33.4115 98.6817C27.9876 98.4407 26.0591 106.878 26.0591 106.878Z" fill="black"/>
<path d="M25.6975 106.878L23.2869 109.59V116.159C23.2869 116.159 25.3359 136.89 31.8446 139.18C38.3533 141.47 49.9722 137.854 49.9722 137.854C49.9722 137.854 52.973 129.899 51.5692 129.417C50.1653 128.935 39.1619 126.029 39.1619 126.029C39.1619 126.029 39.3175 113.869 36.9069 110.253C36.9069 110.253 38.4738 98.9228 33.0499 98.6817C27.626 98.4407 25.6975 106.878 25.6975 106.878Z" fill="#3F3D56"/>
<path opacity="0.1" d="M42.5339 79.0171C42.429 78.2241 42.5235 77.4176 42.8087 76.6703C43.1486 75.9507 43.9441 75.383 44.7197 75.5657C45.7521 75.8061 46.1968 77.1494 47.2075 77.4713C48.059 77.7424 48.9902 77.1386 49.3969 76.3413C49.8037 75.5458 49.8146 74.6129 49.8164 73.7197C49.8182 72.7127 49.8206 71.7056 49.8236 70.6986C49.8254 69.603 49.858 68.4188 50.5342 67.5582C51.3748 66.486 53.3492 66.0178 54.6672 66.0612C55.5452 66.0706 56.3875 66.4101 57.0266 67.0122C57.7335 67.6124 58.5489 68.0535 59.5107 67.8963C59.911 67.8355 60.2859 67.6626 60.5921 67.3977C60.8983 67.1328 61.1232 66.7867 61.241 66.3993C61.2448 66.3868 61.2478 66.3741 61.25 66.3613C60.2246 65.0093 58.9303 63.8843 57.4488 63.057C55.9672 62.2297 54.3305 61.7181 52.6415 61.5543C50.9525 61.3906 49.248 61.5783 47.6351 62.1056C46.0222 62.6329 44.536 63.4885 43.27 64.6183C42.0039 65.7481 40.9855 67.1278 40.2788 68.6706C39.5721 70.2133 39.1925 71.8856 39.1637 73.5822C39.135 75.2789 39.4579 76.9631 40.1119 78.5288C40.766 80.0946 41.7371 81.508 42.9642 82.68C42.753 81.4679 42.6094 80.2451 42.5339 79.0171Z" fill="black"/>
<path d="M59.5111 67.5348C59.9114 67.4738 60.2863 67.3008 60.5925 67.0359C60.8988 66.7709 61.1239 66.4248 61.2418 66.0375C61.3431 65.6483 61.3165 65.2332 61.4311 64.8477C61.7125 63.9008 62.7235 63.407 63.4011 62.6882C64.7593 61.2473 64.6711 58.8768 63.7096 57.1457C62.9337 55.7487 61.4284 54.5691 59.8539 54.8421C58.8791 55.0112 58.0357 55.7061 57.0483 55.7686C56.0978 55.8289 55.2274 55.2964 54.3609 54.901C52.2709 53.9554 49.922 53.7469 47.6982 54.3097C47.0145 54.4457 46.3808 54.7653 45.865 55.2343C45.5145 55.6745 45.1881 56.1334 44.8871 56.6088C43.7627 58.0407 41.7518 58.3203 39.9604 58.6454C38.1691 58.9704 36.1418 59.6773 35.553 61.4C35.1627 62.5423 35.5413 63.783 35.7656 64.9691C35.8395 65.2124 35.8225 65.4742 35.7178 65.7059C35.4384 66.1681 34.7388 65.9747 34.2102 66.0856C33.1939 66.2989 32.9327 67.6083 32.8952 68.6461C32.8524 69.8339 32.8202 71.022 32.7985 72.2104C32.7695 72.6541 32.805 73.0996 32.9037 73.5331C33.1249 74.152 33.4742 74.7173 33.9287 75.192L37.9088 79.9734C39.6734 82.0933 41.5475 84.5643 41.1919 87.2996C42.0284 87.675 43.0216 86.9529 43.2959 86.0781C43.5702 85.2033 43.3487 84.2608 43.1628 83.363C42.8416 81.8109 42.6313 80.2379 42.5336 78.656C42.4285 77.863 42.5233 77.0563 42.8096 76.3094C43.1485 75.5888 43.945 75.0222 44.7204 75.2036C45.7528 75.445 46.197 76.7877 47.2073 77.1097C48.0589 77.3811 48.9911 76.7763 49.3971 75.9801C49.8032 75.1838 49.8141 74.2518 49.8162 73.358L49.8233 70.3368C49.8259 69.2421 49.8583 68.0571 50.5339 67.1957C51.3745 66.1241 53.3497 65.6559 54.668 65.6987C55.5456 65.709 56.3874 66.0486 57.0264 66.6502C57.7337 67.2506 58.5483 67.6917 59.5111 67.5348Z" fill="#3F3D56"/>
<path opacity="0.1" d="M56.7343 105.371L52.9597 120.877C52.9597 120.877 49.9846 120.86 56.7343 105.371Z" fill="black"/>
<path opacity="0.1" d="M43.8375 102.78C43.8375 102.78 48.7793 110.873 46.8508 119.241L45.9301 119.308C45.9301 119.308 47.574 115.436 43.8375 102.78Z" fill="black"/>
<path opacity="0.1" d="M40.7036 148.582C40.7036 148.582 34.6357 146.575 34.1949 151.233C34.1949 151.233 35.34 148.039 40.7036 148.582Z" fill="black"/>
<path opacity="0.1" d="M58.241 121.824C58.241 121.824 59.4463 130.261 57.2767 133.636C57.2767 133.636 61.6898 135.444 67.8835 135.082L68.6067 121.824L58.241 121.824Z" fill="black"/>
<path opacity="0.1" d="M57.4153 132.687L58.0011 133.012L61.7363 124.596L58.2415 121.463H58.0607C58.0609 121.468 58.0615 121.474 58.0625 121.479C58.1168 121.868 59.0913 129.114 57.4153 132.687Z" fill="black"/>
<path d="M58.241 121.462C58.241 121.462 59.4463 129.899 57.2767 133.274C57.2767 133.274 61.6898 135.082 67.8835 134.721L72.1021 121.462H58.241Z" fill="#3F3D56"/>
<path d="M67.8951 265.318C67.9653 265.919 68.2333 266.48 68.657 266.912C69.0807 267.344 69.636 267.624 70.2357 267.706C73.5091 268.195 81.393 266.743 83.3841 267.69C85.9153 268.896 95.9188 268.052 96.4015 266.848C96.4695 266.606 96.4892 266.354 96.4594 266.105C96.4296 265.856 96.351 265.616 96.2279 265.398C95.8856 264.663 95.3199 264.055 94.6116 263.66C94.3812 263.529 94.1383 263.421 93.8866 263.338C92.0027 262.709 88.4428 261.375 87.4828 259.977C87.4828 259.977 83.0469 256.096 81.7809 253.997C81.543 253.584 81.2072 253.237 80.8029 252.985C80.3987 252.733 79.9387 252.585 79.4635 252.554C78.4077 252.506 77.2316 253.037 76.7507 255.351C76.7507 255.351 70.9688 258.65 69.4031 255.757C69.4031 255.757 69.1626 262.9 68.2026 264.115C68.2008 264.117 68.199 264.121 68.1972 264.123C68.0705 264.292 67.9785 264.485 67.9267 264.69C67.8749 264.895 67.8641 265.109 67.8951 265.318Z" fill="#CBCEDA"/>
<path opacity="0.1" d="M67.8951 265.318C67.9653 265.919 68.2333 266.48 68.657 266.912C69.0807 267.344 69.636 267.624 70.2357 267.706C73.5091 268.195 81.393 266.743 83.3841 267.69C85.9153 268.896 95.9188 268.052 96.4015 266.848C96.4695 266.606 96.4892 266.354 96.4594 266.105C96.4296 265.856 96.351 265.616 96.2279 265.398C95.8856 264.663 95.3199 264.055 94.6116 263.66C92.9808 264.741 89.3595 265.801 81.3953 264.557C73.7982 263.371 70.0377 264.907 68.2026 264.115C68.2008 264.117 68.199 264.121 68.1972 264.123C68.0705 264.292 67.9785 264.485 67.9267 264.69C67.8749 264.895 67.8641 265.109 67.8951 265.318Z" fill="black"/>
<g opacity="0.1">
<path opacity="0.1" d="M35.7767 65.1384C35.7733 65.1191 35.77 65.0997 35.7663 65.0806C35.5955 64.1773 35.3362 63.2425 35.3942 62.3435C35.4717 63.0822 35.5961 63.8153 35.7663 64.5382C35.8163 64.7348 35.8199 64.9403 35.7767 65.1384Z" fill="black"/>
<path opacity="0.1" d="M42.8102 76.4209C42.6198 76.8554 42.5191 77.3239 42.5143 77.7982C42.4597 77.1439 42.5611 76.486 42.8102 75.8785C43.1492 75.158 43.9456 74.5914 44.721 74.7727C45.7534 75.0141 46.1976 76.3568 47.2079 76.6788C48.0595 76.9502 48.9917 76.3454 49.3978 75.5492C49.8039 74.7529 49.8147 73.8209 49.8169 72.9271C49.8192 71.92 49.8216 70.913 49.824 69.9059C49.8266 68.8112 49.8589 67.6262 50.5345 66.7649C51.3751 65.6932 53.3503 65.225 54.6686 65.2679C55.5463 65.2781 56.388 65.6177 57.0271 66.2193C57.7345 66.8197 58.549 67.2608 59.5118 67.104C59.9121 67.0429 60.287 66.8699 60.5932 66.605C60.8995 66.3401 61.1245 65.9939 61.2425 65.6066C61.3438 65.2175 61.3172 64.8023 61.4318 64.4169C61.7132 63.4699 62.7242 62.9761 63.4018 62.2573C64.0344 61.557 64.3951 60.6532 64.4185 59.7097C64.4682 60.2668 64.4037 60.8283 64.2289 61.3596C64.0541 61.8909 63.7726 62.381 63.4018 62.7997C62.7242 63.5185 61.7132 64.0123 61.4318 64.9593C61.3172 65.3447 61.3438 65.7599 61.2425 66.149C61.1245 66.5363 60.8995 66.8824 60.5932 67.1474C60.287 67.4123 59.9121 67.5853 59.5118 67.6464C58.549 67.8032 57.7345 67.3621 57.0271 66.7617C56.388 66.1601 55.5463 65.8205 54.6686 65.8103C53.3503 65.7674 51.3751 66.2356 50.5345 67.3073C49.8589 68.1686 49.8266 69.3536 49.824 70.4483C49.8216 71.4554 49.8193 72.4624 49.8169 73.4695C49.8147 74.3633 49.8039 75.2953 49.3978 76.0916C48.9917 76.8878 48.0595 77.4926 47.2079 77.2212C46.1977 76.8992 45.7534 75.5565 44.721 75.315C43.9456 75.1337 43.1492 75.7003 42.8102 76.4209Z" fill="black"/>
<path opacity="0.1" d="M32.9044 73.1023C33.1256 73.7211 33.4749 74.2864 33.9294 74.7611C35.2561 76.3549 36.5828 77.9487 37.9095 79.5425C39.585 81.5553 41.3576 83.8847 41.2283 86.4562C41.1074 84.099 39.4664 81.9552 37.9095 80.0849C36.5828 78.4911 35.2561 76.8973 33.9294 75.3035C33.4749 74.8288 33.1256 74.2635 32.9044 73.6446C32.8057 73.2113 32.7703 72.7659 32.7992 72.3223C32.8028 72.5856 32.8381 72.8474 32.9044 73.1023Z" fill="black"/>
<path opacity="0.1" d="M43.2967 85.6472C43.3612 85.4376 43.4011 85.2211 43.4157 85.0023C43.4501 85.402 43.4097 85.8047 43.2967 86.1896C43.0224 87.0644 42.0291 87.7865 41.1926 87.4112C41.2152 87.2362 41.229 87.0602 41.2339 86.8838C42.0615 87.2181 43.0268 86.5078 43.2967 85.6472Z" fill="black"/>
</g>
<path opacity="0.1" d="M82.5758 255.088C82.5758 255.088 81.3163 257.304 76.7506 255.351L82.5758 255.088Z" fill="black"/>
<path opacity="0.1" d="M44.7518 255.236C44.7518 255.236 40.8135 259.872 35.8521 256.756L44.7518 255.236Z" fill="black"/>
<path opacity="0.1" d="M33.2916 200.41C33.2916 200.41 36.0735 202.147 36.1639 203.142C36.2543 204.136 34.7278 202.419 34.7278 202.419L33.2916 200.41Z" fill="black"/>
<path opacity="0.1" d="M32.1937 213.737C33.1612 214.542 34.3641 215.012 35.6215 215.074C37.7007 215.165 37.5276 217.877 36.1677 217.063C34.8079 216.25 32.1937 213.737 32.1937 213.737Z" fill="black"/>
<path opacity="0.1" d="M31.6643 215.476C31.6643 215.476 32.9999 222.035 34.0847 220.77L31.6643 215.476Z" fill="black"/>
</svg>
