<svg width="310" height="270" viewBox="0 0 310 270" fill="none" xmlns="http://www.w3.org/2000/svg">
<path d="M196.073 63.9422H194.595V23.441C194.595 20.3627 193.989 17.3145 192.811 14.4705C191.633 11.6265 189.907 9.04238 187.731 6.86568C185.555 4.68898 182.971 2.96233 180.128 1.78431C177.284 0.606299 174.237 -1.14127e-05 171.159 1.61111e-10H85.3729C82.2953 -1.09164e-05 79.2478 0.606298 76.4045 1.78431C73.5612 2.96233 70.9777 4.68898 68.8015 6.86568C66.6253 9.04238 64.8991 11.6265 63.7214 14.4705C62.5436 17.3145 61.9374 20.3627 61.9374 23.441V245.633C61.9374 248.712 62.5436 251.76 63.7214 254.604C64.8991 257.448 66.6253 260.032 68.8015 262.209C70.9777 264.385 73.5612 266.112 76.4045 267.29C79.2478 268.468 82.2953 269.074 85.3729 269.074H171.159C174.237 269.074 177.284 268.468 180.128 267.29C182.971 266.112 185.555 264.385 187.731 262.209C189.907 260.032 191.633 257.448 192.811 254.604C193.989 251.76 194.595 248.712 194.595 245.633V92.7716H196.073L196.073 63.9422Z" fill="#3F3D56"/>
<path d="M271.328 258.027H0.0922852V258.783H271.328V258.027Z" fill="#3F3D56"/>
<path opacity="0.2" d="M172.105 6.09854H160.907C161.422 7.36137 161.619 8.7315 161.48 10.0882C161.34 11.4449 160.87 12.7466 160.109 13.8786C159.349 15.0106 158.322 15.9381 157.118 16.5794C155.915 17.2208 154.572 17.5563 153.209 17.5564H104.063C102.699 17.5563 101.357 17.2208 100.153 16.5794C98.9499 15.9381 97.9227 15.0106 97.1621 13.8786C96.4016 12.7466 95.931 11.4449 95.7919 10.0882C95.6528 8.7315 95.8493 7.36137 96.3643 6.09854H85.9053C83.607 6.09853 81.3312 6.55132 79.2079 7.43105C77.0845 8.31078 75.1552 9.60022 73.5301 11.2257C71.9049 12.8513 70.6158 14.7811 69.7363 16.9049C68.8567 19.0288 68.4041 21.3051 68.4041 23.604V245.47C68.4041 247.769 68.8567 250.046 69.7363 252.17C70.6158 254.293 71.9049 256.223 73.5301 257.849C75.1552 259.474 77.0845 260.764 79.2079 261.643C81.3312 262.523 83.607 262.976 85.9053 262.976H172.105C174.403 262.976 176.679 262.523 178.803 261.643C180.926 260.764 182.855 259.474 184.48 257.849C186.106 256.223 187.395 254.293 188.274 252.17C189.154 250.046 189.606 247.769 189.606 245.47V23.604C189.606 21.3051 189.154 19.0288 188.274 16.9049C187.395 14.7811 186.106 12.8513 184.48 11.2257C182.855 9.60022 180.926 8.31078 178.803 7.43105C176.679 6.55132 174.403 6.09853 172.105 6.09854Z" fill="black"/>
<path d="M27.0338 258.743L26.6284 258.591C26.5393 258.557 17.6721 255.159 13.5184 247.454C9.36442 239.748 11.3984 230.471 11.4194 230.378L11.5152 229.956L11.9204 230.108C12.0095 230.141 20.8765 233.54 25.0304 241.245C29.1844 248.95 27.1504 258.228 27.1294 258.32L27.0338 258.743ZM14.1835 247.095C17.6954 253.61 24.7025 256.949 26.4779 257.712C26.8154 255.808 27.874 248.112 24.3653 241.603C20.8569 235.096 13.8471 231.751 12.0709 230.987C11.7332 232.891 10.675 240.587 14.1835 247.095Z" fill="#3F3D56"/>
<path d="M16.6928 244.751C24.1577 249.243 27.0327 258.166 27.0327 258.166C27.0327 258.166 17.8047 259.805 10.3398 255.313C2.87496 250.821 0 241.898 0 241.898C0 241.898 9.22797 240.259 16.6928 244.751Z" fill="#43D3A6"/>
<path d="M106.767 162.435H90.1603V166.434H106.767V162.435Z" fill="#43D3A6"/>
<path d="M164.277 162.435H158.434V166.434H164.277V162.435Z" fill="#43D3A6"/>
<path d="M175.964 162.435H170.121V166.434H175.964V162.435Z" fill="#43D3A6"/>
<path d="M152.283 162.435H112.611V166.434H152.283V162.435Z" fill="#43D3A6"/>
<path d="M143.365 188.275H137.521V192.274H143.365V188.275Z" fill="#43D3A6"/>
<path d="M155.051 188.275H149.208V192.274H155.051V188.275Z" fill="#43D3A6"/>
<path d="M131.371 188.275H91.698V192.274H131.371V188.275Z" fill="#43D3A6"/>
<path d="M154.436 171.356H137.829V175.355H154.436V171.356Z" fill="#43D3A6"/>
<path d="M176.887 171.356H160.279V175.355H176.887V171.356Z" fill="#43D3A6"/>
<path d="M86.7773 171.356H80.9341V175.355H86.7773V171.356Z" fill="#43D3A6"/>
<path d="M132.293 171.356H92.6206V175.355H132.293V171.356Z" fill="#43D3A6"/>
<path d="M103.385 183.968H119.992V179.969H103.385V183.968Z" fill="#43D3A6"/>
<path d="M80.9341 183.968H97.5413V179.969H80.9341V183.968Z" fill="#43D3A6"/>
<path d="M171.043 183.968H176.887V179.969H171.043V183.968Z" fill="#43D3A6"/>
<path d="M125.527 183.968H165.2V179.969H125.527V183.968Z" fill="#43D3A6"/>
<path d="M226.438 82.1774C222.053 74.7669 213.379 74.4215 213.379 74.4215C213.379 74.4215 204.926 73.3403 199.503 84.6267C194.449 95.1465 187.473 105.304 198.38 107.766L200.35 101.633L201.57 108.223C203.123 108.335 204.681 108.361 206.237 108.303C217.917 107.925 229.041 108.413 228.683 104.221C228.206 98.6473 230.657 89.3079 226.438 82.1774Z" fill="#2F2E41"/>
<path d="M210.648 96.1331C210.648 96.1331 216.314 104.068 212.914 110.492C209.514 116.915 220.847 123.717 220.847 123.717L229.158 105.58C229.158 105.58 219.336 99.156 221.981 93.1103L210.648 96.1331Z" fill="#FBBEBE"/>
<path d="M214.425 99.5338C219.85 99.5338 224.247 95.1353 224.247 89.7096C224.247 84.2838 219.85 79.8853 214.425 79.8853C209.001 79.8853 204.603 84.2838 204.603 89.7096C204.603 95.1353 209.001 99.5338 214.425 99.5338Z" fill="#FBBEBE"/>
<path d="M180.434 101.066L188.642 90.4736C188.642 90.4736 191.532 79.3704 195.718 79.9333C199.904 80.4961 194.065 93.2489 194.065 93.2489L185.909 104.974L180.434 101.066Z" fill="#FBBEBE"/>
<path d="M221.981 241.985L224.625 255.966L230.292 257.478L228.781 240.852L221.981 241.985Z" fill="#FBBEBE"/>
<path d="M279.023 226.871L289.223 240.852L293.378 242.741L296.778 237.073L286.579 223.848L279.023 226.871Z" fill="#FBBEBE"/>
<path d="M219.714 117.671L213.412 109.373C213.412 109.373 201.204 111.625 200.07 112.759C198.937 113.892 203.092 134.674 203.092 134.674C203.092 134.674 203.848 140.342 207.248 143.365L210.648 145.632L238.602 139.964L239.653 127.523C240.036 122.992 239.468 118.43 237.986 114.131C236.504 109.831 234.141 105.889 231.047 102.557L226.183 103.222L219.714 117.671Z" fill="#575A89"/>
<path d="M201.581 113.514L199.692 112.759L191.004 112.003C191.004 112.003 187.982 111.247 188.737 109.736C189.493 108.224 190.248 107.847 188.737 107.469C187.226 107.091 186.848 106.713 187.226 105.58C187.604 104.446 189.871 102.179 189.871 102.179L183.449 96.8888C183.449 96.8888 183.101 97.1347 182.539 97.5897C179.351 100.172 169.262 109.488 176.649 118.804C185.337 129.762 195.537 136.186 203.848 133.919L201.581 113.514Z" fill="#575A89"/>
<path d="M209.892 143.743V149.033C209.892 149.033 206.492 155.457 207.626 161.502C208.759 167.548 209.137 170.571 209.137 170.571C209.26 175.713 210.151 180.807 211.781 185.685C214.425 193.242 205.737 242.741 216.692 243.497C227.647 244.253 233.691 245.008 237.091 241.23C240.491 237.451 231.425 172.46 231.425 172.46C231.425 172.46 262.402 237.073 268.824 234.428C275.246 231.783 291.489 225.738 289.601 222.337C287.712 218.936 240.113 143.365 240.113 143.365L238.602 139.964L209.892 143.743Z" fill="#2F2E41"/>
<path d="M228.025 253.321C228.025 253.321 221.981 252.943 221.981 254.833C221.981 256.722 218.958 263.145 218.958 263.145C218.958 263.145 216.692 270.703 222.736 269.947C228.78 269.191 232.558 262.39 232.558 262.39L231.047 255.211L228.025 253.321Z" fill="#2F2E41"/>
<path d="M291.112 240.096C291.112 240.096 285.823 236.696 286.201 238.963C286.579 241.23 286.956 247.276 289.601 247.653C292.245 248.031 300.178 250.298 300.556 251.054C300.934 251.81 310 254.833 310 249.921C310 245.008 304.333 241.23 304.333 241.23L297.911 236.318C297.911 236.318 293.756 235.94 293.001 238.585C292.245 241.23 291.112 240.096 291.112 240.096Z" fill="#2F2E41"/>
<path d="M214.44 80.7329C217.904 80.7329 220.713 77.924 220.713 74.4591C220.713 70.9941 217.904 68.1852 214.44 68.1852C210.976 68.1852 208.168 70.9941 208.168 74.4591C208.168 77.924 210.976 80.7329 214.44 80.7329Z" fill="#2F2E41"/>
<path d="M207.508 72.8081C207.508 71.2586 208.081 69.7639 209.117 68.6121C210.154 67.4602 211.579 66.7326 213.12 66.5695C212.245 66.4763 211.36 66.5682 210.523 66.8393C209.687 67.1104 208.916 67.5545 208.262 68.1428C207.608 68.7312 207.085 69.4506 206.726 70.2543C206.368 71.058 206.183 71.9281 206.183 72.8081C206.183 73.688 206.368 74.5581 206.726 75.3618C207.085 76.1655 207.608 76.8849 208.262 77.4733C208.916 78.0616 209.687 78.5058 210.523 78.7768C211.36 79.0479 212.245 79.1398 213.12 79.0466C211.579 78.8835 210.154 78.1559 209.117 77.004C208.081 75.8522 207.508 74.3576 207.508 72.8081Z" fill="#2F2E41"/>
<path d="M224.499 81.4631L215.929 76.9727L204.094 78.8098L201.646 89.6271L207.741 89.3928L209.444 85.4185V89.3271L212.256 89.219L213.889 82.8918L214.909 89.6271L224.908 89.423L224.499 81.4631Z" fill="#2F2E41"/>
<path d="M223.986 144.618L210.769 144.976C210.769 144.976 199.492 147.171 200.124 142.618C200.757 138.065 211.759 139.657 211.759 139.657L223.803 137.819L223.986 144.618Z" fill="#FBBEBE"/>
<path d="M234.444 101.916C235.108 101.816 235.786 101.955 236.357 102.311C236.927 102.666 237.352 103.213 237.555 103.854C240.142 112.009 248.114 139.302 240.194 143.046C230.865 147.456 224.058 147.262 224.058 147.262L220.414 138.289L223.731 135.175L227.272 112.4L228.969 102.746L234.444 101.916Z" fill="#575A89"/>
<path opacity="0.4" d="M231.992 117.104L230.48 132.218L217.259 137.886L231.992 134.485V117.104Z" fill="black"/>
<path d="M77.7634 97.8328C78.9768 95.3867 79.6631 93.2561 79.2963 93.074C78.9294 92.892 77.6484 94.7274 76.4349 97.1736C75.2215 99.6197 74.5352 101.75 74.9021 101.932C75.2689 102.114 76.55 100.279 77.7634 97.8328Z" fill="#E0E0E0"/>
<path d="M139.317 128.41C140.531 125.964 141.312 123.881 141.063 123.757C140.814 123.634 139.628 125.516 138.415 127.963C137.201 130.409 136.42 132.492 136.669 132.616C136.918 132.739 138.104 130.857 139.317 128.41Z" fill="#E0E0E0"/>
<path d="M106.24 116.044L103.953 114.155L97.6581 121.781L99.9451 123.67L106.24 116.044Z" fill="#F55F44"/>
<path opacity="0.05" d="M100.981 124.278L104.229 125.042L106.492 115.416L103.244 114.652L100.981 124.278Z" fill="black"/>
<path d="M101.342 124.363L104.229 125.042L106.492 115.416L103.605 114.737L101.342 124.363Z" fill="#F55F44"/>
<path opacity="0.05" d="M111.4 109.007L106.308 106.48L101.913 115.338L107.006 117.865L111.4 109.007Z" fill="black"/>
<path d="M111.179 108.897L106.529 106.589L102.135 115.448L106.784 117.755L111.179 108.897Z" fill="#F55F44"/>
<path opacity="0.05" d="M110.293 108.457L107.193 106.919L102.799 115.777L105.899 117.316L110.293 108.457Z" fill="black"/>
<path d="M110.072 108.347L107.415 107.029L103.021 115.887L105.677 117.206L110.072 108.347Z" fill="#F55F44"/>
<path d="M109.714 136.918C109.941 136.918 110.126 136.734 110.126 136.506C110.126 136.278 109.941 136.094 109.714 136.094C109.486 136.094 109.302 136.278 109.302 136.506C109.302 136.734 109.486 136.918 109.714 136.918Z" fill="#DBDBDB"/>
<g opacity="0.5">
<path opacity="0.5" d="M77.4709 124.964H77.0483V127.359H77.4709V124.964Z" fill="#47E6B1"/>
<path opacity="0.5" d="M78.4569 126.373V125.95H76.0624V126.373H78.4569Z" fill="#47E6B1"/>
</g>
<g opacity="0.5">
<path opacity="0.5" d="M183.956 95.0957H183.533V97.4908H183.956V95.0957Z" fill="#47E6B1"/>
<path opacity="0.5" d="M184.942 96.5046V96.0819H182.547V96.5046H184.942Z" fill="#47E6B1"/>
</g>
<g opacity="0.5">
<path opacity="0.5" d="M80.0063 65.3686H79.5837V67.7637H80.0063V65.3686Z" fill="#47E6B1"/>
<path opacity="0.5" d="M80.9923 66.7775V66.3548H78.5978V66.7775H80.9923Z" fill="#47E6B1"/>
</g>
<g opacity="0.5">
<path opacity="0.5" d="M171.279 61.7055H170.857V64.1006H171.279V61.7055Z" fill="#47E6B1"/>
<path opacity="0.5" d="M172.265 63.1144V62.6917H169.871V63.1144H172.265Z" fill="#47E6B1"/>
</g>
<path opacity="0.5" d="M74.6391 92.765C74.5227 92.7142 74.429 92.6224 74.3758 92.5071C74.3226 92.3917 74.3137 92.2608 74.3507 92.1393C74.3567 92.1206 74.3605 92.1014 74.362 92.0819C74.3654 92.0262 74.3508 91.9709 74.3203 91.9242C74.2898 91.8775 74.2451 91.8418 74.1928 91.8225C74.1404 91.8032 74.0833 91.8013 74.0298 91.817C73.9763 91.8327 73.9293 91.8653 73.8957 91.9098C73.8842 91.9256 73.8745 91.9427 73.867 91.9608C73.8163 92.0773 73.7245 92.171 73.6092 92.2242C73.4938 92.2774 73.3629 92.2863 73.2415 92.2492C73.2228 92.2433 73.2036 92.2395 73.1841 92.238C73.1284 92.2346 73.0731 92.2492 73.0264 92.2797C72.9797 92.3102 72.9441 92.3549 72.9248 92.4073C72.9055 92.4596 72.9036 92.5167 72.9193 92.5703C72.935 92.6238 72.9675 92.6708 73.012 92.7044C73.0278 92.7159 73.0449 92.7256 73.063 92.7331C73.1795 92.7838 73.2732 92.8756 73.3264 92.991C73.3795 93.1064 73.3885 93.2373 73.3514 93.3588C73.3454 93.3774 73.3416 93.3967 73.3401 93.4162C73.3368 93.4719 73.3514 93.5272 73.3819 93.5739C73.4123 93.6206 73.4571 93.6562 73.5094 93.6755C73.5617 93.6948 73.6188 93.6968 73.6723 93.6811C73.7258 93.6653 73.7729 93.6328 73.8064 93.5883C73.818 93.5725 73.8276 93.5553 73.8352 93.5373C73.8859 93.4208 73.9776 93.327 74.093 93.2739C74.2083 93.2207 74.3392 93.2118 74.4607 93.2488C74.4793 93.2548 74.4986 93.2586 74.5181 93.2601C74.5738 93.2635 74.629 93.2488 74.6757 93.2183C74.7224 93.1879 74.7581 93.1431 74.7774 93.0908C74.7967 93.0385 74.7986 92.9813 74.7829 92.9278C74.7672 92.8743 74.7346 92.8273 74.6901 92.7937C74.6743 92.7821 74.6572 92.7725 74.6391 92.765Z" fill="#4D8AF0"/>
<path opacity="0.5" d="M98.8659 65.0102C98.7494 64.9595 98.6557 64.8677 98.6025 64.7523C98.5493 64.637 98.5404 64.5061 98.5775 64.3845C98.5835 64.3659 98.5873 64.3466 98.5888 64.3271C98.5921 64.2715 98.5775 64.2162 98.547 64.1695C98.5165 64.1228 98.4718 64.0871 98.4195 64.0678C98.3672 64.0485 98.3101 64.0466 98.2566 64.0623C98.203 64.078 98.156 64.1105 98.1225 64.1551C98.1109 64.1709 98.1013 64.188 98.0937 64.206C98.043 64.3225 97.9513 64.4163 97.8359 64.4695C97.7206 64.5227 97.5897 64.5316 97.4682 64.4945C97.4496 64.4885 97.4303 64.4847 97.4108 64.4833C97.3551 64.4799 97.2999 64.4945 97.2532 64.525C97.2065 64.5555 97.1708 64.6002 97.1515 64.6525C97.1322 64.7049 97.1303 64.762 97.146 64.8155C97.1617 64.869 97.1943 64.9161 97.2388 64.9497C97.2546 64.9612 97.2717 64.9708 97.2898 64.9784C97.4062 65.0291 97.4999 65.1209 97.5531 65.2363C97.6063 65.3516 97.6152 65.4825 97.5781 65.6041C97.5722 65.6227 97.5684 65.642 97.5669 65.6615C97.5635 65.7171 97.5781 65.7724 97.6086 65.8191C97.6391 65.8658 97.6838 65.9015 97.7361 65.9208C97.7884 65.9401 97.8456 65.942 97.8991 65.9263C97.9526 65.9106 97.9996 65.8781 98.0332 65.8335C98.0447 65.8177 98.0544 65.8006 98.0619 65.7825C98.1126 65.6661 98.2044 65.5723 98.3197 65.5191C98.4351 65.4659 98.566 65.457 98.6874 65.4941C98.7061 65.5001 98.7253 65.5039 98.7448 65.5053C98.8005 65.5087 98.8558 65.4941 98.9025 65.4636C98.9492 65.4331 98.9848 65.3884 99.0041 65.3361C99.0234 65.2837 99.0253 65.2266 99.0096 65.1731C98.9939 65.1196 98.9614 65.0725 98.9169 65.0389C98.9011 65.0274 98.884 65.0178 98.8659 65.0102Z" fill="#4D8AF0"/>
<path opacity="0.5" d="M128.445 137.003C128.329 136.953 128.235 136.861 128.182 136.746C128.129 136.63 128.12 136.499 128.157 136.378C128.163 136.359 128.166 136.34 128.168 136.32C128.171 136.265 128.157 136.209 128.126 136.163C128.096 136.116 128.051 136.08 127.999 136.061C127.946 136.042 127.889 136.04 127.836 136.055C127.782 136.071 127.735 136.104 127.702 136.148C127.69 136.164 127.68 136.181 127.673 136.199C127.622 136.316 127.53 136.409 127.415 136.463C127.3 136.516 127.169 136.525 127.047 136.488C127.029 136.482 127.009 136.478 126.99 136.476C126.934 136.473 126.879 136.488 126.832 136.518C126.786 136.549 126.75 136.593 126.731 136.646C126.711 136.698 126.709 136.755 126.725 136.809C126.741 136.862 126.773 136.909 126.818 136.943C126.834 136.954 126.851 136.964 126.869 136.972C126.985 137.022 127.079 137.114 127.132 137.229C127.185 137.345 127.194 137.476 127.157 137.597C127.151 137.616 127.148 137.635 127.146 137.655C127.143 137.71 127.157 137.766 127.188 137.812C127.218 137.859 127.263 137.895 127.315 137.914C127.368 137.933 127.425 137.935 127.478 137.92C127.532 137.904 127.579 137.871 127.612 137.827C127.624 137.811 127.634 137.794 127.641 137.776C127.692 137.659 127.784 137.566 127.899 137.512C128.014 137.459 128.145 137.45 128.267 137.487C128.285 137.493 128.304 137.497 128.324 137.499C128.38 137.502 128.435 137.487 128.482 137.457C128.528 137.426 128.564 137.382 128.583 137.329C128.603 137.277 128.604 137.22 128.589 137.166C128.573 137.113 128.541 137.066 128.496 137.032C128.48 137.021 128.463 137.011 128.445 137.003Z" fill="#4D8AF0"/>
<path opacity="0.5" d="M179.871 120.455C180.338 120.455 180.716 120.077 180.716 119.61C180.716 119.143 180.338 118.765 179.871 118.765C179.404 118.765 179.026 119.143 179.026 119.61C179.026 120.077 179.404 120.455 179.871 120.455Z" fill="#F55F44"/>
<path opacity="0.5" d="M161.279 125.809C161.745 125.809 162.124 125.431 162.124 124.964C162.124 124.497 161.745 124.118 161.279 124.118C160.812 124.118 160.433 124.497 160.433 124.964C160.433 125.431 160.812 125.809 161.279 125.809Z" fill="#4D8AF0"/>
<path opacity="0.5" d="M87.4715 134.121C87.9382 134.121 88.3166 133.743 88.3166 133.276C88.3166 132.809 87.9382 132.431 87.4715 132.431C87.0047 132.431 86.6263 132.809 86.6263 133.276C86.6263 133.743 87.0047 134.121 87.4715 134.121Z" fill="#47E6B1"/>
<path opacity="0.5" d="M130.854 58.7469C131.321 58.7469 131.699 58.3684 131.699 57.9016C131.699 57.4347 131.321 57.0563 130.854 57.0563C130.388 57.0563 130.009 57.4347 130.009 57.9016C130.009 58.3684 130.388 58.7469 130.854 58.7469Z" fill="#F55F44"/>
<path d="M101.768 107.423L98.3876 112.495C98.3876 112.495 99.5145 117.708 124.445 117.567C149.377 117.426 151.348 112.495 151.348 112.495L146.7 105.733L132.474 96.0115L101.768 107.423Z" fill="#43D3A6"/>
<path opacity="0.15" d="M101.768 107.423L98.3876 112.495C98.3876 112.495 99.5145 117.708 124.445 117.567C149.377 117.426 151.348 112.495 151.348 112.495L146.7 105.733L132.474 96.0115L101.768 107.423Z" fill="black"/>
<path d="M173.674 88.6149L129.305 108.198L75.2172 88.6149L124.798 66.073L149.136 77.2975L150.007 77.7004L173.674 88.6149Z" fill="#43D3A6"/>
<path opacity="0.15" d="M173.674 88.6149L129.305 108.198L75.2172 88.6149L124.798 66.073L149.136 77.2975L150.007 77.7004L173.674 88.6149Z" fill="black"/>
<path d="M150.926 93.3093L150.081 93.36L149.136 77.2975L150.007 77.7004L150.926 93.3093Z" fill="#F5F5F5"/>
<path d="M102.332 88.5445L98.3876 112.495C98.3876 112.495 126.699 103.338 151.348 112.495L147.686 87.1356C147.686 87.1356 114.586 83.0499 102.332 88.5445Z" fill="#43D3A6"/>
<path d="M150.855 98.1952C153.111 98.1952 154.94 96.9337 154.94 95.3775C154.94 93.8213 153.111 92.5598 150.855 92.5598C148.599 92.5598 146.771 93.8213 146.771 95.3775C146.771 96.9337 148.599 98.1952 150.855 98.1952Z" fill="#F5F5F5"/>
</svg>
