<svg width="33" height="50" xmlns="http://www.w3.org/2000/svg" class="half-sphere">

 <g>
  <title>background</title>
 </g>
 <g>
  <title>Layer 1</title>
  <path stroke="null" id="svg_1" fill-opacity="0.2" fill="#43D3A6" d="m28.595504,0c11.821361,0 21.404496,11.1929 21.404496,25c0,13.8071 -9.583135,25 -21.404496,25c-11.821361,0 -21.404496,-11.1929 -21.404496,-25c0,-13.8071 9.583135,-25 21.404496,-25z"/>
  <path id="svg_2" stroke="#43D3A6" fill="#ffffff" d="m19.61359,16.614381c-0.1009,-0.115 -0.227,-0.1724 -0.3657,-0.1724c-0.1387,0 -0.2648,0.0574 -0.3656,0.1724c-0.2018,0.2299 -0.2018,0.6034 0,0.8333l6.4308,7.3276l-6.4308,7.3276c-0.2018,0.2299 -0.2018,0.6034 0,0.8333c0.2017,0.2299 0.5296,0.2299 0.7313,0l6.8092,-7.7442c0.2017,-0.2299 0.2017,-0.6035 0,-0.8334l-6.8092,-7.7442z" class="svg-arrow"/>
 </g>
</svg>